<?xml version="1.0" encoding="utf-8"?> <!-- Generated by Layerhero SVG Exporter: http://www.layerhero.com/photoshop-svg-exporter --><!DOCTYPE svg PUBLIC "-//W3C//DTD SVG 1.1//EN" "http://www.w3.org/Graphics/SVG/1.1/DTD/svg11.dtd"><svg version="1.1" baseProfile="full" xmlns="http://www.w3.org/2000/svg" xmlns:xlink="http://www.w3.org/1999/xlink" xmlns:ev="http://www.w3.org/2001/xml-events" width="80" height="60" viewBox="0 0 80 60"><g transform="scale(NaN)" ><rect x="0px" y="0px" width="80px" height="60px"  fill="rgb( 255, 255, 255 )"/><path fill-rule="evenodd"  fill="rgb( 221, 221, 221 )" d="M5.000,5.000 C5.000,5.000 18.750,5.000 18.750,5.000 C18.750,5.000 18.750,55.000 18.750,55.000 C18.750,55.000 5.000,55.000 5.000,55.000 C5.000,55.000 5.000,5.000 5.000,5.000 Z"/><path fill-rule="evenodd"  fill="rgb( 221, 221, 221 )" d="M24.000,5.000 C24.000,5.000 37.750,5.000 37.750,5.000 C37.750,5.000 37.750,55.000 37.750,55.000 C37.750,55.000 24.000,55.000 24.000,55.000 C24.000,55.000 24.000,5.000 24.000,5.000 Z"/><path fill-rule="evenodd"  fill="rgb( 221, 221, 221 )" d="M43.000,5.000 C43.000,5.000 56.750,5.000 56.750,5.000 C56.750,5.000 56.750,55.000 56.750,55.000 C56.750,55.000 43.000,55.000 43.000,55.000 C43.000,55.000 43.000,5.000 43.000,5.000 Z"/><path fill-rule="evenodd"  fill="rgb( 221, 221, 221 )" d="M61.000,5.000 C61.000,5.000 74.750,5.000 74.750,5.000 C74.750,5.000 74.750,55.000 74.750,55.000 C74.750,55.000 61.000,55.000 61.000,55.000 C61.000,55.000 61.000,5.000 61.000,5.000 Z"/></g></svg>