<?xml version="1.0" encoding="utf-8"?> <!-- Generated by Layerhero SVG Exporter: http://www.layerhero.com/photoshop-svg-exporter --><!DOCTYPE svg PUBLIC "-//W3C//DTD SVG 1.1//EN" "http://www.w3.org/Graphics/SVG/1.1/DTD/svg11.dtd"><svg version="1.1" baseProfile="full" xmlns="http://www.w3.org/2000/svg" xmlns:xlink="http://www.w3.org/1999/xlink" xmlns:ev="http://www.w3.org/2001/xml-events" width="80" height="60" viewBox="0 0 80 60"><g transform="scale(NaN)" ><rect x="0px" y="0px" width="80px" height="60px"  fill="rgb( 255, 255, 255 )"/><path fill-rule="evenodd"  fill="rgb( 221, 221, 221 )" d="M5.000,5.000 C5.000,5.000 25.000,5.000 25.000,5.000 C25.000,5.000 25.000,55.000 25.000,55.000 C25.000,55.000 5.000,55.000 5.000,55.000 C5.000,55.000 5.000,5.000 5.000,5.000 Z"/><path fill-rule="evenodd"  fill="rgb( 221, 221, 221 )" d="M30.000,5.000 C30.000,5.000 50.000,5.000 50.000,5.000 C50.000,5.000 50.000,55.000 50.000,55.000 C50.000,55.000 30.000,55.000 30.000,55.000 C30.000,55.000 30.000,5.000 30.000,5.000 Z"/><path fill-rule="evenodd"  fill="rgb( 221, 221, 221 )" d="M55.000,5.000 C55.000,5.000 75.000,5.000 75.000,5.000 C75.000,5.000 75.000,55.000 75.000,55.000 C75.000,55.000 55.000,55.000 55.000,55.000 C55.000,55.000 55.000,5.000 55.000,5.000 Z"/></g></svg>