<?xml version="1.0" encoding="utf-8"?> <!-- Generated by Layerhero SVG Exporter: http://www.layerhero.com/photoshop-svg-exporter --><!DOCTYPE svg PUBLIC "-//W3C//DTD SVG 1.1//EN" "http://www.w3.org/Graphics/SVG/1.1/DTD/svg11.dtd"><svg version="1.1" baseProfile="full" xmlns="http://www.w3.org/2000/svg" xmlns:xlink="http://www.w3.org/1999/xlink" xmlns:ev="http://www.w3.org/2001/xml-events" width="80" height="60" viewBox="0 0 80 60"><g transform="scale(NaN)" ><rect x="0px" y="0px" width="80px" height="60px"  fill="rgb( 255, 255, 255 )"/><path fill-rule="evenodd"  fill="rgb( 67, 150, 255 )" d="M42.000,5.000 C42.000,5.000 75.000,5.000 75.000,5.000 C75.000,5.000 75.000,39.000 75.000,39.000 C75.000,39.000 42.000,39.000 42.000,39.000 C42.000,39.000 42.000,5.000 42.000,5.000 Z"/><path fill-rule="evenodd"  fill="rgb( 204, 204, 204 )" d="M42.000,46.000 C42.000,46.000 42.000,44.000 42.000,44.000 C42.000,44.000 75.000,44.000 75.000,44.000 C75.000,44.000 75.000,46.000 75.000,46.000 C75.000,46.000 42.000,46.000 42.000,46.000 ZM65.000,50.000 C65.000,50.000 42.000,50.000 42.000,50.000 C42.000,50.000 42.000,48.000 42.000,48.000 C42.000,48.000 65.000,48.000 65.000,48.000 C65.000,48.000 65.000,50.000 65.000,50.000 Z"/><path fill-rule="evenodd"  fill="rgb( 67, 150, 255 )" d="M5.000,5.000 C5.000,5.000 14.000,5.000 14.000,5.000 C14.000,5.000 14.000,14.000 14.000,14.000 C14.000,14.000 5.000,14.000 5.000,14.000 C5.000,14.000 5.000,5.000 5.000,5.000 Z"/><path fill-rule="evenodd"  fill="rgb( 204, 204, 204 )" d="M17.000,7.000 C17.000,7.000 17.000,5.000 17.000,5.000 C17.000,5.000 38.000,5.000 38.000,5.000 C38.000,5.000 38.000,7.000 38.000,7.000 C38.000,7.000 17.000,7.000 17.000,7.000 ZM32.000,11.000 C32.000,11.000 17.000,11.000 17.000,11.000 C17.000,11.000 17.000,9.000 17.000,9.000 C17.000,9.000 32.000,9.000 32.000,9.000 C32.000,9.000 32.000,11.000 32.000,11.000 Z"/><path fill-rule="evenodd"  fill="rgb( 67, 150, 255 )" d="M5.000,18.000 C5.000,18.000 14.000,18.000 14.000,18.000 C14.000,18.000 14.000,27.000 14.000,27.000 C14.000,27.000 5.000,27.000 5.000,27.000 C5.000,27.000 5.000,18.000 5.000,18.000 Z"/><path fill-rule="evenodd"  fill="rgb( 204, 204, 204 )" d="M17.000,20.000 C17.000,20.000 17.000,18.000 17.000,18.000 C17.000,18.000 38.000,18.000 38.000,18.000 C38.000,18.000 38.000,20.000 38.000,20.000 C38.000,20.000 17.000,20.000 17.000,20.000 ZM32.000,24.000 C32.000,24.000 17.000,24.000 17.000,24.000 C17.000,24.000 17.000,22.000 17.000,22.000 C17.000,22.000 32.000,22.000 32.000,22.000 C32.000,22.000 32.000,24.000 32.000,24.000 Z"/><path fill-rule="evenodd"  fill="rgb( 67, 150, 255 )" d="M5.000,31.000 C5.000,31.000 14.000,31.000 14.000,31.000 C14.000,31.000 14.000,40.000 14.000,40.000 C14.000,40.000 5.000,40.000 5.000,40.000 C5.000,40.000 5.000,31.000 5.000,31.000 Z"/><path fill-rule="evenodd"  fill="rgb( 204, 204, 204 )" d="M17.000,33.000 C17.000,33.000 17.000,31.000 17.000,31.000 C17.000,31.000 38.000,31.000 38.000,31.000 C38.000,31.000 38.000,33.000 38.000,33.000 C38.000,33.000 17.000,33.000 17.000,33.000 ZM32.000,37.000 C32.000,37.000 17.000,37.000 17.000,37.000 C17.000,37.000 17.000,35.000 17.000,35.000 C17.000,35.000 32.000,35.000 32.000,35.000 C32.000,35.000 32.000,37.000 32.000,37.000 Z"/><path fill-rule="evenodd"  fill="rgb( 67, 150, 255 )" d="M5.000,44.000 C5.000,44.000 14.000,44.000 14.000,44.000 C14.000,44.000 14.000,53.000 14.000,53.000 C14.000,53.000 5.000,53.000 5.000,53.000 C5.000,53.000 5.000,44.000 5.000,44.000 Z"/><path fill-rule="evenodd"  fill="rgb( 204, 204, 204 )" d="M17.000,46.000 C17.000,46.000 17.000,44.000 17.000,44.000 C17.000,44.000 38.000,44.000 38.000,44.000 C38.000,44.000 38.000,46.000 38.000,46.000 C38.000,46.000 17.000,46.000 17.000,46.000 ZM32.000,50.000 C32.000,50.000 17.000,50.000 17.000,50.000 C17.000,50.000 17.000,48.000 17.000,48.000 C17.000,48.000 32.000,48.000 32.000,48.000 C32.000,48.000 32.000,50.000 32.000,50.000 Z"/></g></svg>