<?xml version="1.0" encoding="utf-8"?> <!-- Generated by Layerhero SVG Exporter: http://www.layerhero.com/photoshop-svg-exporter --><!DOCTYPE svg PUBLIC "-//W3C//DTD SVG 1.1//EN" "http://www.w3.org/Graphics/SVG/1.1/DTD/svg11.dtd"><svg version="1.1" baseProfile="full" xmlns="http://www.w3.org/2000/svg" xmlns:xlink="http://www.w3.org/1999/xlink" xmlns:ev="http://www.w3.org/2001/xml-events" width="80" height="60" viewBox="0 0 80 60"><g transform="scale(NaN)" ><rect x="0px" y="0px" width="80px" height="60px"  fill="rgb( 255, 255, 255 )"/><path fill-rule="evenodd"  fill="rgb( 67, 150, 255 )" d="M5.000,5.000 C5.000,5.000 42.000,5.000 42.000,5.000 C42.000,5.000 42.000,55.000 42.000,55.000 C42.000,55.000 5.000,55.000 5.000,55.000 C5.000,55.000 5.000,5.000 5.000,5.000 Z"/><path fill-rule="evenodd"  fill="rgb( 243, 104, 60 )" d="M5.000,35.000 C5.000,35.000 16.000,35.000 16.000,35.000 C16.000,35.000 16.000,44.062 16.000,44.062 C16.000,44.062 5.000,44.062 5.000,44.062 C5.000,44.062 5.000,35.000 5.000,35.000 Z"/><path fill-rule="evenodd"  fill="rgb( 255, 255, 255 )" d="M5.000,41.469 C5.000,41.469 33.000,41.469 33.000,41.469 C33.000,41.469 33.000,57.000 33.000,57.000 C33.000,57.000 5.000,57.000 5.000,57.000 C5.000,57.000 5.000,41.469 5.000,41.469 Z"/><path fill-rule="evenodd"  fill="rgb( 204, 204, 204 )" d="M7.000,49.000 C7.000,49.000 7.000,47.000 7.000,47.000 C7.000,47.000 28.000,47.000 28.000,47.000 C28.000,47.000 28.000,49.000 28.000,49.000 C28.000,49.000 7.000,49.000 7.000,49.000 ZM21.625,53.000 C21.625,53.000 7.000,53.000 7.000,53.000 C7.000,53.000 7.000,51.000 7.000,51.000 C7.000,51.000 21.625,51.000 21.625,51.000 C21.625,51.000 21.625,53.000 21.625,53.000 Z"/><path fill-rule="evenodd"  fill="rgb( 255, 255, 255 )" d="M7.000,38.000 C7.000,38.000 14.000,38.000 14.000,38.000 C14.000,38.000 14.000,39.000 14.000,39.000 C14.000,39.000 7.000,39.000 7.000,39.000 C7.000,39.000 7.000,38.000 7.000,38.000 Z"/><path fill-rule="evenodd"  fill="rgb( 204, 204, 204 )" d="M48.000,12.000 C48.000,12.000 48.000,10.000 48.000,10.000 C48.000,10.000 76.000,10.000 76.000,10.000 C76.000,10.000 76.000,12.000 76.000,12.000 C76.000,12.000 48.000,12.000 48.000,12.000 ZM67.500,16.000 C67.500,16.000 48.000,16.000 48.000,16.000 C48.000,16.000 48.000,14.000 48.000,14.000 C48.000,14.000 67.500,14.000 67.500,14.000 C67.500,14.000 67.500,16.000 67.500,16.000 Z"/><path fill-rule="evenodd"  fill="rgb( 204, 204, 204 )" d="M48.000,23.000 C48.000,23.000 48.000,21.000 48.000,21.000 C48.000,21.000 76.000,21.000 76.000,21.000 C76.000,21.000 76.000,23.000 76.000,23.000 C76.000,23.000 48.000,23.000 48.000,23.000 ZM67.500,27.000 C67.500,27.000 48.000,27.000 48.000,27.000 C48.000,27.000 48.000,25.000 48.000,25.000 C48.000,25.000 67.500,25.000 67.500,25.000 C67.500,25.000 67.500,27.000 67.500,27.000 Z"/><path fill-rule="evenodd"  fill="rgb( 204, 204, 204 )" d="M48.000,34.000 C48.000,34.000 48.000,32.000 48.000,32.000 C48.000,32.000 76.000,32.000 76.000,32.000 C76.000,32.000 76.000,34.000 76.000,34.000 C76.000,34.000 48.000,34.000 48.000,34.000 ZM67.500,38.000 C67.500,38.000 48.000,38.000 48.000,38.000 C48.000,38.000 48.000,36.000 48.000,36.000 C48.000,36.000 67.500,36.000 67.500,36.000 C67.500,36.000 67.500,38.000 67.500,38.000 Z"/><path fill-rule="evenodd"  fill="rgb( 204, 204, 204 )" d="M48.000,45.000 C48.000,45.000 48.000,43.000 48.000,43.000 C48.000,43.000 76.000,43.000 76.000,43.000 C76.000,43.000 76.000,45.000 76.000,45.000 C76.000,45.000 48.000,45.000 48.000,45.000 ZM67.500,49.000 C67.500,49.000 48.000,49.000 48.000,49.000 C48.000,49.000 48.000,47.000 48.000,47.000 C48.000,47.000 67.500,47.000 67.500,47.000 C67.500,47.000 67.500,49.000 67.500,49.000 Z"/></g></svg>