<?xml version="1.0" encoding="utf-8"?> <!-- Generated by Layerhero SVG Exporter: http://www.layerhero.com/photoshop-svg-exporter --><!DOCTYPE svg PUBLIC "-//W3C//DTD SVG 1.1//EN" "http://www.w3.org/Graphics/SVG/1.1/DTD/svg11.dtd"><svg version="1.1" baseProfile="full" xmlns="http://www.w3.org/2000/svg" xmlns:xlink="http://www.w3.org/1999/xlink" xmlns:ev="http://www.w3.org/2001/xml-events" width="80" height="60" viewBox="0 0 80 60"><g transform="scale(NaN)" ><rect x="0px" y="0px" width="80px" height="60px"  fill="rgb( 255, 255, 255 )"/><path fill-rule="evenodd"  fill="rgb( 67, 150, 255 )" d="M5.000,5.000 C5.000,5.000 38.000,5.000 38.000,5.000 C38.000,5.000 38.000,27.000 38.000,27.000 C38.000,27.000 5.000,27.000 5.000,27.000 C5.000,27.000 5.000,5.000 5.000,5.000 Z"/><path fill-rule="evenodd"  fill="rgb( 221, 221, 221 )" d="M5.000,53.000 C5.000,53.000 38.000,53.000 38.000,53.000 C38.000,53.000 38.000,55.000 38.000,55.000 C38.000,55.000 5.000,55.000 5.000,55.000 C5.000,55.000 5.000,53.000 5.000,53.000 Z"/><path fill-rule="evenodd"  fill="rgb( 221, 221, 221 )" d="M5.000,51.000 C5.000,51.000 5.000,49.000 5.000,49.000 C5.000,49.000 38.000,49.000 38.000,49.000 C38.000,49.000 38.000,51.000 38.000,51.000 C38.000,51.000 5.000,51.000 5.000,51.000 ZM5.000,45.000 C5.000,45.000 38.000,45.000 38.000,45.000 C38.000,45.000 38.000,47.000 38.000,47.000 C38.000,47.000 5.000,47.000 5.000,47.000 C5.000,47.000 5.000,45.000 5.000,45.000 Z"/><path fill-rule="evenodd"  fill="rgb( 204, 204, 204 )" d="M5.000,35.000 C5.000,35.000 5.000,33.000 5.000,33.000 C5.000,33.000 38.000,33.000 38.000,33.000 C38.000,33.000 38.000,35.000 38.000,35.000 C38.000,35.000 5.000,35.000 5.000,35.000 ZM28.000,39.000 C28.000,39.000 5.000,39.000 5.000,39.000 C5.000,39.000 5.000,37.000 5.000,37.000 C5.000,37.000 28.000,37.000 28.000,37.000 C28.000,37.000 28.000,39.000 28.000,39.000 Z"/><path fill-rule="evenodd"  fill="rgb( 67, 150, 255 )" d="M42.000,5.000 C42.000,5.000 51.000,5.000 51.000,5.000 C51.000,5.000 51.000,14.000 51.000,14.000 C51.000,14.000 42.000,14.000 42.000,14.000 C42.000,14.000 42.000,5.000 42.000,5.000 Z"/><path fill-rule="evenodd"  fill="rgb( 204, 204, 204 )" d="M54.000,7.000 C54.000,7.000 54.000,5.000 54.000,5.000 C54.000,5.000 75.000,5.000 75.000,5.000 C75.000,5.000 75.000,7.000 75.000,7.000 C75.000,7.000 54.000,7.000 54.000,7.000 ZM69.000,11.000 C69.000,11.000 54.000,11.000 54.000,11.000 C54.000,11.000 54.000,9.000 54.000,9.000 C54.000,9.000 69.000,9.000 69.000,9.000 C69.000,9.000 69.000,11.000 69.000,11.000 Z"/><path fill-rule="evenodd"  fill="rgb( 67, 150, 255 )" d="M42.000,18.000 C42.000,18.000 51.000,18.000 51.000,18.000 C51.000,18.000 51.000,27.000 51.000,27.000 C51.000,27.000 42.000,27.000 42.000,27.000 C42.000,27.000 42.000,18.000 42.000,18.000 Z"/><path fill-rule="evenodd"  fill="rgb( 204, 204, 204 )" d="M54.000,20.000 C54.000,20.000 54.000,18.000 54.000,18.000 C54.000,18.000 75.000,18.000 75.000,18.000 C75.000,18.000 75.000,20.000 75.000,20.000 C75.000,20.000 54.000,20.000 54.000,20.000 ZM69.000,24.000 C69.000,24.000 54.000,24.000 54.000,24.000 C54.000,24.000 54.000,22.000 54.000,22.000 C54.000,22.000 69.000,22.000 69.000,22.000 C69.000,22.000 69.000,24.000 69.000,24.000 Z"/><path fill-rule="evenodd"  fill="rgb( 67, 150, 255 )" d="M42.000,31.000 C42.000,31.000 51.000,31.000 51.000,31.000 C51.000,31.000 51.000,40.000 51.000,40.000 C51.000,40.000 42.000,40.000 42.000,40.000 C42.000,40.000 42.000,31.000 42.000,31.000 Z"/><path fill-rule="evenodd"  fill="rgb( 204, 204, 204 )" d="M54.000,33.000 C54.000,33.000 54.000,31.000 54.000,31.000 C54.000,31.000 75.000,31.000 75.000,31.000 C75.000,31.000 75.000,33.000 75.000,33.000 C75.000,33.000 54.000,33.000 54.000,33.000 ZM69.000,37.000 C69.000,37.000 54.000,37.000 54.000,37.000 C54.000,37.000 54.000,35.000 54.000,35.000 C54.000,35.000 69.000,35.000 69.000,35.000 C69.000,35.000 69.000,37.000 69.000,37.000 Z"/><path fill-rule="evenodd"  fill="rgb( 67, 150, 255 )" d="M42.000,44.000 C42.000,44.000 51.000,44.000 51.000,44.000 C51.000,44.000 51.000,53.000 51.000,53.000 C51.000,53.000 42.000,53.000 42.000,53.000 C42.000,53.000 42.000,44.000 42.000,44.000 Z"/><path fill-rule="evenodd"  fill="rgb( 204, 204, 204 )" d="M54.000,46.000 C54.000,46.000 54.000,44.000 54.000,44.000 C54.000,44.000 75.000,44.000 75.000,44.000 C75.000,44.000 75.000,46.000 75.000,46.000 C75.000,46.000 54.000,46.000 54.000,46.000 ZM69.000,50.000 C69.000,50.000 54.000,50.000 54.000,50.000 C54.000,50.000 54.000,48.000 54.000,48.000 C54.000,48.000 69.000,48.000 69.000,48.000 C69.000,48.000 69.000,50.000 69.000,50.000 Z"/></g></svg>