<?xml version="1.0" encoding="utf-8"?> <!-- Generated by Layerhero SVG Exporter: http://www.layerhero.com/photoshop-svg-exporter --><!DOCTYPE svg PUBLIC "-//W3C//DTD SVG 1.1//EN" "http://www.w3.org/Graphics/SVG/1.1/DTD/svg11.dtd"><svg version="1.1" baseProfile="full" xmlns="http://www.w3.org/2000/svg" xmlns:xlink="http://www.w3.org/1999/xlink" xmlns:ev="http://www.w3.org/2001/xml-events" width="80" height="60" viewBox="0 0 80 60"><g transform="scale(NaN)" ><rect x="0px" y="0px" width="80px" height="60px"  fill="rgb( 255, 255, 255 )"/><path fill-rule="evenodd"  fill="rgb( 67, 150, 255 )" d="M5.000,5.000 C5.000,5.000 38.000,5.000 38.000,5.000 C38.000,5.000 38.000,27.000 38.000,27.000 C38.000,27.000 5.000,27.000 5.000,27.000 C5.000,27.000 5.000,5.000 5.000,5.000 Z"/><path fill-rule="evenodd"  fill="rgb( 243, 104, 60 )" d="M5.000,10.000 C5.000,10.000 16.000,10.000 16.000,10.000 C16.000,10.000 16.000,17.000 16.000,17.000 C16.000,17.000 5.000,17.000 5.000,17.000 C5.000,17.000 5.000,10.000 5.000,10.000 Z"/><path fill-rule="evenodd"  fill="rgb( 255, 255, 255 )" d="M5.000,15.000 C5.000,15.000 33.000,15.000 33.000,15.000 C33.000,15.000 33.000,27.000 33.000,27.000 C33.000,27.000 5.000,27.000 5.000,27.000 C5.000,27.000 5.000,15.000 5.000,15.000 Z"/><path fill-rule="evenodd"  fill="rgb( 204, 204, 204 )" d="M8.000,21.000 C8.000,21.000 8.000,19.000 8.000,19.000 C8.000,19.000 29.000,19.000 29.000,19.000 C29.000,19.000 29.000,21.000 29.000,21.000 C29.000,21.000 8.000,21.000 8.000,21.000 ZM22.625,25.000 C22.625,25.000 8.000,25.000 8.000,25.000 C8.000,25.000 8.000,23.000 8.000,23.000 C8.000,23.000 22.625,23.000 22.625,23.000 C22.625,23.000 22.625,25.000 22.625,25.000 Z"/><path fill-rule="evenodd"  fill="rgb( 255, 255, 255 )" d="M7.000,12.000 C7.000,12.000 14.000,12.000 14.000,12.000 C14.000,12.000 14.000,13.000 14.000,13.000 C14.000,13.000 7.000,13.000 7.000,13.000 C7.000,13.000 7.000,12.000 7.000,12.000 Z"/><path fill-rule="evenodd"  fill="rgb( 67, 150, 255 )" d="M42.000,5.000 C42.000,5.000 75.000,5.000 75.000,5.000 C75.000,5.000 75.000,27.000 75.000,27.000 C75.000,27.000 42.000,27.000 42.000,27.000 C42.000,27.000 42.000,5.000 42.000,5.000 Z"/><path fill-rule="evenodd"  fill="rgb( 243, 104, 60 )" d="M42.000,10.000 C42.000,10.000 53.000,10.000 53.000,10.000 C53.000,10.000 53.000,17.000 53.000,17.000 C53.000,17.000 42.000,17.000 42.000,17.000 C42.000,17.000 42.000,10.000 42.000,10.000 Z"/><path fill-rule="evenodd"  fill="rgb( 255, 255, 255 )" d="M42.000,15.000 C42.000,15.000 70.000,15.000 70.000,15.000 C70.000,15.000 70.000,27.000 70.000,27.000 C70.000,27.000 42.000,27.000 42.000,27.000 C42.000,27.000 42.000,15.000 42.000,15.000 Z"/><path fill-rule="evenodd"  fill="rgb( 204, 204, 204 )" d="M45.000,21.000 C45.000,21.000 45.000,19.000 45.000,19.000 C45.000,19.000 66.000,19.000 66.000,19.000 C66.000,19.000 66.000,21.000 66.000,21.000 C66.000,21.000 45.000,21.000 45.000,21.000 ZM59.625,25.000 C59.625,25.000 45.000,25.000 45.000,25.000 C45.000,25.000 45.000,23.000 45.000,23.000 C45.000,23.000 59.625,23.000 59.625,23.000 C59.625,23.000 59.625,25.000 59.625,25.000 Z"/><path fill-rule="evenodd"  fill="rgb( 255, 255, 255 )" d="M44.000,12.000 C44.000,12.000 51.000,12.000 51.000,12.000 C51.000,12.000 51.000,13.000 51.000,13.000 C51.000,13.000 44.000,13.000 44.000,13.000 C44.000,13.000 44.000,12.000 44.000,12.000 Z"/><path fill-rule="evenodd"  fill="rgb( 67, 150, 255 )" d="M5.000,33.000 C5.000,33.000 38.000,33.000 38.000,33.000 C38.000,33.000 38.000,55.000 38.000,55.000 C38.000,55.000 5.000,55.000 5.000,55.000 C5.000,55.000 5.000,33.000 5.000,33.000 Z"/><path fill-rule="evenodd"  fill="rgb( 243, 104, 60 )" d="M5.000,38.000 C5.000,38.000 16.000,38.000 16.000,38.000 C16.000,38.000 16.000,45.000 16.000,45.000 C16.000,45.000 5.000,45.000 5.000,45.000 C5.000,45.000 5.000,38.000 5.000,38.000 Z"/><path fill-rule="evenodd"  fill="rgb( 255, 255, 255 )" d="M5.000,43.000 C5.000,43.000 33.000,43.000 33.000,43.000 C33.000,43.000 33.000,55.000 33.000,55.000 C33.000,55.000 5.000,55.000 5.000,55.000 C5.000,55.000 5.000,43.000 5.000,43.000 Z"/><path fill-rule="evenodd"  fill="rgb( 204, 204, 204 )" d="M8.000,49.000 C8.000,49.000 8.000,47.000 8.000,47.000 C8.000,47.000 29.000,47.000 29.000,47.000 C29.000,47.000 29.000,49.000 29.000,49.000 C29.000,49.000 8.000,49.000 8.000,49.000 ZM22.625,53.000 C22.625,53.000 8.000,53.000 8.000,53.000 C8.000,53.000 8.000,51.000 8.000,51.000 C8.000,51.000 22.625,51.000 22.625,51.000 C22.625,51.000 22.625,53.000 22.625,53.000 Z"/><path fill-rule="evenodd"  fill="rgb( 255, 255, 255 )" d="M7.000,40.000 C7.000,40.000 14.000,40.000 14.000,40.000 C14.000,40.000 14.000,41.000 14.000,41.000 C14.000,41.000 7.000,41.000 7.000,41.000 C7.000,41.000 7.000,40.000 7.000,40.000 Z"/><path fill-rule="evenodd"  fill="rgb( 67, 150, 255 )" d="M42.000,33.000 C42.000,33.000 75.000,33.000 75.000,33.000 C75.000,33.000 75.000,55.000 75.000,55.000 C75.000,55.000 42.000,55.000 42.000,55.000 C42.000,55.000 42.000,33.000 42.000,33.000 Z"/><path fill-rule="evenodd"  fill="rgb( 243, 104, 60 )" d="M42.000,38.000 C42.000,38.000 53.000,38.000 53.000,38.000 C53.000,38.000 53.000,45.000 53.000,45.000 C53.000,45.000 42.000,45.000 42.000,45.000 C42.000,45.000 42.000,38.000 42.000,38.000 Z"/><path fill-rule="evenodd"  fill="rgb( 255, 255, 255 )" d="M42.000,43.000 C42.000,43.000 70.000,43.000 70.000,43.000 C70.000,43.000 70.000,55.000 70.000,55.000 C70.000,55.000 42.000,55.000 42.000,55.000 C42.000,55.000 42.000,43.000 42.000,43.000 Z"/><path fill-rule="evenodd"  fill="rgb( 204, 204, 204 )" d="M45.000,49.000 C45.000,49.000 45.000,47.000 45.000,47.000 C45.000,47.000 66.000,47.000 66.000,47.000 C66.000,47.000 66.000,49.000 66.000,49.000 C66.000,49.000 45.000,49.000 45.000,49.000 ZM59.625,53.000 C59.625,53.000 45.000,53.000 45.000,53.000 C45.000,53.000 45.000,51.000 45.000,51.000 C45.000,51.000 59.625,51.000 59.625,51.000 C59.625,51.000 59.625,53.000 59.625,53.000 Z"/><path fill-rule="evenodd"  fill="rgb( 255, 255, 255 )" d="M44.000,40.000 C44.000,40.000 51.000,40.000 51.000,40.000 C51.000,40.000 51.000,41.000 51.000,41.000 C51.000,41.000 44.000,41.000 44.000,41.000 C44.000,41.000 44.000,40.000 44.000,40.000 Z"/></g></svg>