<?xml version="1.0" encoding="utf-8"?> <!-- Generated by Layerhero SVG Exporter: http://www.layerhero.com/photoshop-svg-exporter --><!DOCTYPE svg PUBLIC "-//W3C//DTD SVG 1.1//EN" "http://www.w3.org/Graphics/SVG/1.1/DTD/svg11.dtd"><svg version="1.1" baseProfile="full" xmlns="http://www.w3.org/2000/svg" xmlns:xlink="http://www.w3.org/1999/xlink" xmlns:ev="http://www.w3.org/2001/xml-events" width="80" height="60" viewBox="0 0 80 60"><filter filterUnits="userSpaceOnUse" id="Filter_0" x="25px" y="23px" width="50px" height="18px"  >  <feOffset in="SourceAlpha" dx="0px" dy="2px" />  <feGaussianBlur result="blurOut" stdDeviation="0" />  <feFlood flood-color="rgb( 31, 31, 31 )" result="floodOut" />  <feComposite operator="atop" in="floodOut" in2="blurOut" />  <feComponentTransfer><feFuncA type="linear" slope="1"/></feComponentTransfer>  <feMerge>    <feMergeNode/>    <feMergeNode in="SourceGraphic"/>  </feMerge></filter><g transform="scale(NaN)" ><rect x="0px" y="0px" width="80px" height="60px"  fill="rgb( 255, 255, 255 )"/><path fill-rule="evenodd"  fill="rgb( 67, 150, 255 )" d="M5.000,5.000 C5.000,5.000 57.000,5.000 57.000,5.000 C57.000,5.000 57.000,55.000 57.000,55.000 C57.000,55.000 5.000,55.000 5.000,55.000 C5.000,55.000 5.000,5.000 5.000,5.000 Z"/><path fill-rule="evenodd"  fill="rgb( 243, 104, 60 )" d="M25.000,17.000 C25.000,17.000 36.000,17.000 36.000,17.000 C36.000,17.000 36.000,26.062 36.000,26.062 C36.000,26.062 25.000,26.062 25.000,26.062 C25.000,26.062 25.000,17.000 25.000,17.000 Z"/><g filter="url(#Filter_0)"><path fill-rule="evenodd"  fill="rgb( 255, 255, 255 )" d="M25.000,23.000 C25.000,23.000 75.000,23.000 75.000,23.000 C75.000,23.000 75.000,39.000 75.000,39.000 C75.000,39.000 25.000,39.000 25.000,39.000 C25.000,39.000 25.000,23.000 25.000,23.000 Z"/></g><path fill-rule="evenodd"  fill="rgb( 204, 204, 204 )" d="M30.000,30.000 C30.000,30.000 30.000,28.000 30.000,28.000 C30.000,28.000 75.000,28.000 75.000,28.000 C75.000,28.000 75.000,30.000 75.000,30.000 C75.000,30.000 30.000,30.000 30.000,30.000 ZM61.344,34.000 C61.344,34.000 30.000,34.000 30.000,34.000 C30.000,34.000 30.000,32.000 30.000,32.000 C30.000,32.000 61.344,32.000 61.344,32.000 C61.344,32.000 61.344,34.000 61.344,34.000 Z"/><path fill-rule="evenodd"  fill="rgb( 255, 255, 255 )" d="M27.000,20.000 C27.000,20.000 34.000,20.000 34.000,20.000 C34.000,20.000 34.000,21.000 34.000,21.000 C34.000,21.000 27.000,21.000 27.000,21.000 C27.000,21.000 27.000,20.000 27.000,20.000 Z"/></g></svg>