<?xml version="1.0" encoding="utf-8"?> <!-- Generated by Layerhero SVG Exporter: http://www.layerhero.com/photoshop-svg-exporter --><!DOCTYPE svg PUBLIC "-//W3C//DTD SVG 1.1//EN" "http://www.w3.org/Graphics/SVG/1.1/DTD/svg11.dtd"><svg version="1.1" baseProfile="full" xmlns="http://www.w3.org/2000/svg" xmlns:xlink="http://www.w3.org/1999/xlink" xmlns:ev="http://www.w3.org/2001/xml-events" width="80" height="60" viewBox="0 0 80 60"><g transform="scale(NaN)" ><rect x="0px" y="0px" width="80px" height="60px"  fill="rgb( 255, 255, 255 )"/><path fill-rule="evenodd"  fill="rgb( 67, 150, 255 )" d="M5.000,5.000 C5.000,5.000 38.000,5.000 38.000,5.000 C38.000,5.000 38.000,45.000 38.000,45.000 C38.000,45.000 5.000,45.000 5.000,45.000 C5.000,45.000 5.000,5.000 5.000,5.000 Z"/><path fill-rule="evenodd"  fill="rgb( 204, 204, 204 )" d="M5.000,51.000 C5.000,51.000 5.000,49.000 5.000,49.000 C5.000,49.000 38.000,49.000 38.000,49.000 C38.000,49.000 38.000,51.000 38.000,51.000 C38.000,51.000 5.000,51.000 5.000,51.000 ZM28.000,55.000 C28.000,55.000 5.000,55.000 5.000,55.000 C5.000,55.000 5.000,53.000 5.000,53.000 C5.000,53.000 28.000,53.000 28.000,53.000 C28.000,53.000 28.000,55.000 28.000,55.000 Z"/><path fill-rule="evenodd"  fill="rgb( 67, 150, 255 )" d="M42.000,5.000 C42.000,5.000 56.000,5.000 56.000,5.000 C56.000,5.000 56.000,19.000 56.000,19.000 C56.000,19.000 42.000,19.000 42.000,19.000 C42.000,19.000 42.000,5.000 42.000,5.000 Z"/><path fill-rule="evenodd"  fill="rgb( 204, 204, 204 )" d="M42.000,24.000 C42.000,24.000 42.000,22.000 42.000,22.000 C42.000,22.000 56.000,22.000 56.000,22.000 C56.000,22.000 56.000,24.000 56.000,24.000 C56.000,24.000 42.000,24.000 42.000,24.000 ZM52.000,28.000 C52.000,28.000 42.000,28.000 42.000,28.000 C42.000,28.000 42.000,26.000 42.000,26.000 C42.000,26.000 52.000,26.000 52.000,26.000 C52.000,26.000 52.000,28.000 52.000,28.000 Z"/><path fill-rule="evenodd"  fill="rgb( 67, 150, 255 )" d="M61.000,5.000 C61.000,5.000 75.000,5.000 75.000,5.000 C75.000,5.000 75.000,19.000 75.000,19.000 C75.000,19.000 61.000,19.000 61.000,19.000 C61.000,19.000 61.000,5.000 61.000,5.000 Z"/><path fill-rule="evenodd"  fill="rgb( 204, 204, 204 )" d="M61.000,24.000 C61.000,24.000 61.000,22.000 61.000,22.000 C61.000,22.000 75.000,22.000 75.000,22.000 C75.000,22.000 75.000,24.000 75.000,24.000 C75.000,24.000 61.000,24.000 61.000,24.000 ZM71.000,28.000 C71.000,28.000 61.000,28.000 61.000,28.000 C61.000,28.000 61.000,26.000 61.000,26.000 C61.000,26.000 71.000,26.000 71.000,26.000 C71.000,26.000 71.000,28.000 71.000,28.000 Z"/><path fill-rule="evenodd"  fill="rgb( 67, 150, 255 )" d="M42.000,31.000 C42.000,31.000 56.000,31.000 56.000,31.000 C56.000,31.000 56.000,45.000 56.000,45.000 C56.000,45.000 42.000,45.000 42.000,45.000 C42.000,45.000 42.000,31.000 42.000,31.000 Z"/><path fill-rule="evenodd"  fill="rgb( 204, 204, 204 )" d="M42.000,51.000 C42.000,51.000 42.000,49.000 42.000,49.000 C42.000,49.000 56.000,49.000 56.000,49.000 C56.000,49.000 56.000,51.000 56.000,51.000 C56.000,51.000 42.000,51.000 42.000,51.000 ZM52.000,55.000 C52.000,55.000 42.000,55.000 42.000,55.000 C42.000,55.000 42.000,53.000 42.000,53.000 C42.000,53.000 52.000,53.000 52.000,53.000 C52.000,53.000 52.000,55.000 52.000,55.000 Z"/><path fill-rule="evenodd"  fill="rgb( 67, 150, 255 )" d="M61.000,31.000 C61.000,31.000 75.000,31.000 75.000,31.000 C75.000,31.000 75.000,45.000 75.000,45.000 C75.000,45.000 61.000,45.000 61.000,45.000 C61.000,45.000 61.000,31.000 61.000,31.000 Z"/><path fill-rule="evenodd"  fill="rgb( 204, 204, 204 )" d="M61.000,51.000 C61.000,51.000 61.000,49.000 61.000,49.000 C61.000,49.000 75.000,49.000 75.000,49.000 C75.000,49.000 75.000,51.000 75.000,51.000 C75.000,51.000 61.000,51.000 61.000,51.000 ZM71.000,55.000 C71.000,55.000 61.000,55.000 61.000,55.000 C61.000,55.000 61.000,53.000 61.000,53.000 C61.000,53.000 71.000,53.000 71.000,53.000 C71.000,53.000 71.000,55.000 71.000,55.000 Z"/></g></svg>