<?xml version="1.0" encoding="utf-8"?> <!-- Generated by Layerhero SVG Exporter: http://www.layerhero.com/photoshop-svg-exporter --><!DOCTYPE svg PUBLIC "-//W3C//DTD SVG 1.1//EN" "http://www.w3.org/Graphics/SVG/1.1/DTD/svg11.dtd"><svg version="1.1" baseProfile="full" xmlns="http://www.w3.org/2000/svg" xmlns:xlink="http://www.w3.org/1999/xlink" xmlns:ev="http://www.w3.org/2001/xml-events" width="80" height="60" viewBox="0 0 80 60"><g transform="scale(NaN)" ><rect x="0px" y="0px" width="80px" height="60px"  fill="rgb( 255, 255, 255 )"/><path fill-rule="evenodd"  fill="rgb( 67, 150, 255 )" d="M5.000,5.000 C5.000,5.000 38.000,5.000 38.000,5.000 C38.000,5.000 38.000,27.000 38.000,27.000 C38.000,27.000 5.000,27.000 5.000,27.000 C5.000,27.000 5.000,5.000 5.000,5.000 Z"/><path fill-rule="evenodd"  fill="rgb( 255, 255, 255 )" d="M8.000,19.000 C8.000,19.000 8.000,17.000 8.000,17.000 C8.000,17.000 35.000,17.000 35.000,17.000 C35.000,17.000 35.000,19.000 35.000,19.000 C35.000,19.000 8.000,19.000 8.000,19.000 ZM26.813,23.000 C26.813,23.000 8.000,23.000 8.000,23.000 C8.000,23.000 8.000,21.000 8.000,21.000 C8.000,21.000 26.813,21.000 26.813,21.000 C26.813,21.000 26.813,23.000 26.813,23.000 Z"/><path fill-rule="evenodd"  fill="rgb( 67, 150, 255 )" d="M42.000,5.000 C42.000,5.000 75.000,5.000 75.000,5.000 C75.000,5.000 75.000,27.000 75.000,27.000 C75.000,27.000 42.000,27.000 42.000,27.000 C42.000,27.000 42.000,5.000 42.000,5.000 Z"/><path fill-rule="evenodd"  fill="rgb( 255, 255, 255 )" d="M45.000,19.000 C45.000,19.000 45.000,17.000 45.000,17.000 C45.000,17.000 72.000,17.000 72.000,17.000 C72.000,17.000 72.000,19.000 72.000,19.000 C72.000,19.000 45.000,19.000 45.000,19.000 ZM63.813,23.000 C63.813,23.000 45.000,23.000 45.000,23.000 C45.000,23.000 45.000,21.000 45.000,21.000 C45.000,21.000 63.813,21.000 63.813,21.000 C63.813,21.000 63.813,23.000 63.813,23.000 Z"/><path fill-rule="evenodd"  fill="rgb( 67, 150, 255 )" d="M5.000,46.000 C5.000,46.000 14.000,46.000 14.000,46.000 C14.000,46.000 14.000,55.000 14.000,55.000 C14.000,55.000 5.000,55.000 5.000,55.000 C5.000,55.000 5.000,46.000 5.000,46.000 Z"/><path fill-rule="evenodd"  fill="rgb( 204, 204, 204 )" d="M17.000,48.000 C17.000,48.000 17.000,46.000 17.000,46.000 C17.000,46.000 38.000,46.000 38.000,46.000 C38.000,46.000 38.000,48.000 38.000,48.000 C38.000,48.000 17.000,48.000 17.000,48.000 ZM32.000,52.000 C32.000,52.000 17.000,52.000 17.000,52.000 C17.000,52.000 17.000,50.000 17.000,50.000 C17.000,50.000 32.000,50.000 32.000,50.000 C32.000,50.000 32.000,52.000 32.000,52.000 Z"/><path fill-rule="evenodd"  fill="rgb( 67, 150, 255 )" d="M5.000,33.000 C5.000,33.000 14.000,33.000 14.000,33.000 C14.000,33.000 14.000,42.000 14.000,42.000 C14.000,42.000 5.000,42.000 5.000,42.000 C5.000,42.000 5.000,33.000 5.000,33.000 Z"/><path fill-rule="evenodd"  fill="rgb( 204, 204, 204 )" d="M17.000,35.000 C17.000,35.000 17.000,33.000 17.000,33.000 C17.000,33.000 38.000,33.000 38.000,33.000 C38.000,33.000 38.000,35.000 38.000,35.000 C38.000,35.000 17.000,35.000 17.000,35.000 ZM32.000,39.000 C32.000,39.000 17.000,39.000 17.000,39.000 C17.000,39.000 17.000,37.000 17.000,37.000 C17.000,37.000 32.000,37.000 32.000,37.000 C32.000,37.000 32.000,39.000 32.000,39.000 Z"/><path fill-rule="evenodd"  fill="rgb( 67, 150, 255 )" d="M42.000,33.000 C42.000,33.000 51.000,33.000 51.000,33.000 C51.000,33.000 51.000,42.000 51.000,42.000 C51.000,42.000 42.000,42.000 42.000,42.000 C42.000,42.000 42.000,33.000 42.000,33.000 Z"/><path fill-rule="evenodd"  fill="rgb( 204, 204, 204 )" d="M54.000,35.000 C54.000,35.000 54.000,33.000 54.000,33.000 C54.000,33.000 75.000,33.000 75.000,33.000 C75.000,33.000 75.000,35.000 75.000,35.000 C75.000,35.000 54.000,35.000 54.000,35.000 ZM69.000,39.000 C69.000,39.000 54.000,39.000 54.000,39.000 C54.000,39.000 54.000,37.000 54.000,37.000 C54.000,37.000 69.000,37.000 69.000,37.000 C69.000,37.000 69.000,39.000 69.000,39.000 Z"/><path fill-rule="evenodd"  fill="rgb( 67, 150, 255 )" d="M42.000,46.000 C42.000,46.000 51.000,46.000 51.000,46.000 C51.000,46.000 51.000,55.000 51.000,55.000 C51.000,55.000 42.000,55.000 42.000,55.000 C42.000,55.000 42.000,46.000 42.000,46.000 Z"/><path fill-rule="evenodd"  fill="rgb( 204, 204, 204 )" d="M54.000,48.000 C54.000,48.000 54.000,46.000 54.000,46.000 C54.000,46.000 75.000,46.000 75.000,46.000 C75.000,46.000 75.000,48.000 75.000,48.000 C75.000,48.000 54.000,48.000 54.000,48.000 ZM69.000,52.000 C69.000,52.000 54.000,52.000 54.000,52.000 C54.000,52.000 54.000,50.000 54.000,50.000 C54.000,50.000 69.000,50.000 69.000,50.000 C69.000,50.000 69.000,52.000 69.000,52.000 Z"/></g></svg>