<?xml version="1.0" encoding="utf-8"?> <!-- Generated by Layerhero SVG Exporter: http://www.layerhero.com/photoshop-svg-exporter --><!DOCTYPE svg PUBLIC "-//W3C//DTD SVG 1.1//EN" "http://www.w3.org/Graphics/SVG/1.1/DTD/svg11.dtd"><svg version="1.1" baseProfile="full" xmlns="http://www.w3.org/2000/svg" xmlns:xlink="http://www.w3.org/1999/xlink" xmlns:ev="http://www.w3.org/2001/xml-events" width="139" height="30" viewBox="0 0 139 30"><g transform="scale(NaN)" ><path fill-rule="evenodd"  fill="rgb( 57, 57, 57 )" d="M136.827,2.698 C136.332,3.239 135.798,4.068 135.227,5.187 C135.227,5.187 129.114,17.334 129.114,17.334 C129.114,17.334 129.114,24.447 129.114,24.447 C129.114,25.184 129.150,25.753 129.220,26.154 C129.290,26.554 129.453,26.882 129.708,27.136 C129.964,27.390 130.280,27.559 130.657,27.642 C131.033,27.724 131.579,27.778 132.295,27.803 C132.295,27.803 132.295,28.584 132.295,28.584 C131.073,28.508 129.420,28.470 127.334,28.470 C125.095,28.470 123.422,28.508 122.316,28.584 C122.316,28.584 122.316,27.803 122.316,27.803 C123.031,27.778 123.577,27.724 123.954,27.642 C124.331,27.559 124.647,27.390 124.902,27.136 C125.158,26.882 125.321,26.554 125.391,26.154 C125.461,25.753 125.496,25.184 125.496,24.447 C125.496,24.447 125.496,18.554 125.496,18.554 C125.496,18.554 117.593,3.946 117.593,3.946 C117.111,3.069 116.695,2.484 116.346,2.191 C115.997,1.899 115.657,1.753 115.327,1.753 C115.327,1.753 115.327,0.972 115.327,0.972 C116.343,1.044 117.485,1.081 118.755,1.081 C121.281,1.081 123.103,1.044 124.220,0.972 C124.220,0.972 124.220,1.753 124.220,1.753 C122.392,1.753 121.478,2.255 121.478,3.259 C121.478,3.641 121.611,4.092 121.878,4.613 C121.878,4.613 128.357,17.066 128.357,17.066 C128.357,17.066 133.323,7.150 133.323,7.150 C134.034,5.713 134.389,4.594 134.389,3.793 C134.389,3.056 134.104,2.532 133.532,2.220 C132.961,1.909 132.098,1.740 130.943,1.715 C130.943,1.715 130.943,0.972 130.943,0.972 C132.428,1.044 133.926,1.081 135.437,1.081 C136.592,1.081 137.563,1.044 138.350,0.972 C138.350,0.972 138.350,1.716 138.350,1.716 C137.830,1.831 137.322,2.158 136.827,2.698 ZM121.287,27.803 C121.287,27.803 121.287,28.584 121.287,28.584 C120.220,28.508 118.824,28.470 117.097,28.470 C114.876,28.470 113.213,28.508 112.108,28.584 C112.108,28.584 112.108,27.803 112.108,27.803 C113.098,27.765 113.806,27.645 114.231,27.442 C114.657,27.239 114.869,26.877 114.869,26.356 C114.869,25.912 114.717,25.302 114.412,24.528 C114.412,24.528 112.013,18.130 112.013,18.130 C112.013,18.130 102.606,18.130 102.606,18.130 C102.606,18.130 101.006,22.262 101.006,22.262 C100.485,23.582 100.225,24.649 100.225,25.461 C100.225,26.286 100.501,26.877 101.054,27.232 C101.606,27.588 102.460,27.778 103.615,27.803 C103.615,27.803 103.615,28.584 103.615,28.584 C102.130,28.508 100.631,28.470 99.121,28.470 C98.936,28.470 98.788,28.477 98.613,28.479 C98.584,28.499 98.554,28.527 98.525,28.546 C97.928,28.939 97.141,29.136 96.164,29.136 C95.095,29.136 94.217,28.825 93.530,28.204 C92.843,27.582 92.322,26.484 91.965,24.911 C91.965,24.911 91.098,21.032 91.098,21.032 C90.968,20.451 90.866,19.993 90.791,19.659 C90.716,19.325 90.606,18.933 90.460,18.482 C90.314,18.031 90.175,17.682 90.041,17.434 C89.908,17.187 89.733,16.920 89.518,16.635 C89.302,16.349 89.067,16.133 88.813,15.987 C88.559,15.841 88.254,15.721 87.899,15.625 C87.543,15.530 87.150,15.483 86.718,15.483 C86.718,15.483 83.005,15.483 83.005,15.483 C83.005,15.483 83.005,24.452 83.005,24.452 C83.005,25.430 83.091,26.140 83.262,26.585 C83.433,27.029 83.725,27.334 84.138,27.499 C84.550,27.664 85.226,27.765 86.166,27.803 C86.166,27.803 86.166,28.584 86.166,28.584 C84.973,28.508 83.322,28.470 81.215,28.470 C78.980,28.470 77.317,28.508 76.226,28.584 C76.226,28.584 76.226,27.803 76.226,27.803 C77.165,27.765 77.841,27.664 78.254,27.499 C78.666,27.334 78.958,27.029 79.130,26.585 C79.301,26.140 79.387,25.430 79.387,24.452 C79.387,24.452 79.387,5.104 79.387,5.104 C79.387,4.127 79.301,3.416 79.130,2.971 C78.958,2.527 78.666,2.222 78.254,2.057 C77.841,1.892 77.165,1.791 76.226,1.753 C76.226,1.753 76.226,0.934 76.226,0.934 C77.304,1.013 78.892,1.052 80.986,1.052 C81.926,1.052 83.094,1.039 84.490,1.012 C85.887,0.985 86.680,0.972 86.871,0.972 C89.892,0.972 92.215,1.607 93.840,2.877 C95.465,4.148 96.278,5.785 96.278,7.789 C96.278,8.526 96.154,9.259 95.907,9.989 C95.659,10.719 95.262,11.452 94.716,12.188 C94.170,12.925 93.380,13.572 92.345,14.131 C91.311,14.689 90.095,15.076 88.699,15.292 C88.699,15.292 89.176,15.368 89.176,15.368 C90.881,15.647 92.125,16.161 92.908,16.910 C93.690,17.659 94.272,18.857 94.654,20.507 C94.654,20.507 95.626,24.486 95.626,24.486 C95.873,25.668 96.135,26.498 96.413,26.974 C96.557,27.221 96.735,27.401 96.944,27.520 C97.895,27.019 98.673,25.990 99.273,24.414 C99.273,24.414 108.452,0.781 108.452,0.781 C108.452,0.781 109.080,0.781 109.080,0.781 C109.080,0.781 118.583,25.309 118.583,25.309 C119.217,26.921 120.119,27.753 121.287,27.803 ZM90.394,13.464 C90.889,13.083 91.285,12.610 91.584,12.045 C91.882,11.481 92.088,10.893 92.203,10.284 C92.317,9.674 92.374,8.989 92.374,8.227 C92.374,6.094 91.866,4.482 90.851,3.390 C89.835,2.299 88.185,1.753 85.899,1.753 C84.719,1.753 83.941,1.972 83.567,2.410 C83.192,2.848 83.005,3.746 83.005,5.104 C83.005,5.104 83.005,14.702 83.005,14.702 C83.005,14.702 85.633,14.702 85.633,14.702 C86.712,14.702 87.651,14.591 88.451,14.369 C89.251,14.147 89.898,13.845 90.394,13.464 ZM107.366,5.714 C107.366,5.714 102.891,17.349 102.891,17.349 C102.891,17.349 111.727,17.349 111.727,17.349 C111.727,17.349 107.366,5.714 107.366,5.714 ZM16.655,28.584 C16.655,28.584 16.655,27.803 16.655,27.803 C17.595,27.765 18.271,27.664 18.683,27.499 C19.096,27.334 19.388,27.029 19.559,26.585 C19.731,26.140 19.816,25.430 19.816,24.452 C19.816,24.452 19.816,15.083 19.816,15.083 C19.816,15.083 7.134,15.083 7.134,15.083 C7.134,15.083 7.134,24.452 7.134,24.452 C7.134,25.430 7.219,26.140 7.391,26.585 C7.562,27.029 7.854,27.334 8.267,27.499 C8.679,27.664 9.355,27.765 10.295,27.803 C10.295,27.803 10.295,28.584 10.295,28.584 C9.101,28.508 7.451,28.470 5.344,28.470 C3.109,28.470 1.446,28.508 0.354,28.584 C0.354,28.584 0.354,27.803 0.354,27.803 C1.294,27.765 1.970,27.664 2.383,27.499 C2.795,27.334 3.087,27.029 3.259,26.585 C3.430,26.140 3.516,25.430 3.516,24.452 C3.516,24.452 3.516,5.104 3.516,5.104 C3.516,4.127 3.430,3.416 3.259,2.971 C3.087,2.527 2.795,2.222 2.383,2.057 C1.970,1.892 1.294,1.791 0.354,1.753 C0.354,1.753 0.354,0.972 0.354,0.972 C1.433,1.048 3.097,1.086 5.344,1.086 C7.451,1.086 9.101,1.048 10.295,0.972 C10.295,0.972 10.295,1.753 10.295,1.753 C9.355,1.791 8.679,1.892 8.267,2.057 C7.854,2.222 7.562,2.527 7.391,2.971 C7.219,3.416 7.134,4.127 7.134,5.104 C7.134,5.104 7.134,14.302 7.134,14.302 C7.134,14.302 19.816,14.302 19.816,14.302 C19.816,14.302 19.816,5.104 19.816,5.104 C19.816,4.127 19.731,3.416 19.559,2.971 C19.388,2.527 19.096,2.222 18.683,2.057 C18.271,1.892 17.595,1.791 16.655,1.753 C16.655,1.753 16.655,0.972 16.655,0.972 C17.874,1.048 19.524,1.086 21.606,1.086 C23.841,1.086 25.504,1.048 26.596,0.972 C26.596,0.972 26.596,1.753 26.596,1.753 C25.656,1.791 24.980,1.892 24.568,2.057 C24.155,2.222 23.863,2.527 23.692,2.971 C23.520,3.416 23.435,4.127 23.435,5.104 C23.435,5.104 23.435,24.452 23.435,24.452 C23.435,25.430 23.520,26.140 23.692,26.585 C23.863,27.029 24.155,27.334 24.568,27.499 C24.980,27.664 25.656,27.765 26.596,27.803 C26.596,27.803 26.596,28.584 26.596,28.584 C25.504,28.508 23.841,28.470 21.606,28.470 C19.524,28.470 17.874,28.508 16.655,28.584 Z"/><path fill-rule="evenodd"  fill="rgb( 230, 174, 72 )" d="M75.036,22.177 C73.983,24.392 72.518,26.106 70.640,27.318 C68.763,28.530 66.626,29.136 64.228,29.136 C60.467,29.136 57.465,27.883 55.223,25.375 C52.981,22.868 51.860,19.411 51.860,15.005 C51.860,12.136 52.387,9.594 53.441,7.379 C54.496,5.164 55.963,3.450 57.844,2.238 C59.724,1.026 61.865,0.420 64.266,0.420 C68.021,0.420 71.018,1.673 73.257,4.181 C75.496,6.689 76.615,10.145 76.615,14.551 C76.615,17.420 76.089,19.962 75.036,22.177 ZM70.248,4.921 C68.606,2.441 66.561,1.200 64.114,1.200 C62.453,1.200 60.985,1.778 59.710,2.933 C58.436,4.088 57.459,5.698 56.781,7.762 C56.103,9.826 55.763,12.190 55.763,14.854 C55.763,18.894 56.584,22.154 58.226,24.635 C59.869,27.115 61.920,28.356 64.380,28.356 C66.041,28.356 67.506,27.778 68.774,26.623 C70.042,25.468 71.016,23.858 71.694,21.794 C72.372,19.730 72.712,17.366 72.712,14.702 C72.712,10.663 71.890,7.402 70.248,4.921 ZM45.836,27.318 C43.959,28.530 41.822,29.136 39.424,29.136 C35.663,29.136 32.661,27.883 30.419,25.375 C28.177,22.868 27.056,19.411 27.056,15.005 C27.056,12.136 27.583,9.594 28.637,7.379 C29.692,5.164 31.159,3.450 33.040,2.238 C34.920,1.026 37.061,0.420 39.462,0.420 C43.217,0.420 46.214,1.673 48.453,4.181 C50.692,6.689 51.811,10.145 51.811,14.551 C51.811,17.420 51.285,19.962 50.232,22.177 C49.179,24.392 47.714,26.106 45.836,27.318 ZM45.444,4.921 C43.802,2.441 41.757,1.200 39.310,1.200 C37.649,1.200 36.181,1.778 34.906,2.933 C33.632,4.088 32.655,5.698 31.977,7.762 C31.299,9.826 30.959,12.190 30.959,14.854 C30.959,18.894 31.780,22.154 33.422,24.635 C35.065,27.115 37.116,28.356 39.576,28.356 C41.237,28.356 42.702,27.778 43.970,26.623 C45.238,25.468 46.212,23.858 46.890,21.794 C47.568,19.730 47.908,17.366 47.908,14.702 C47.908,10.663 47.086,7.402 45.444,4.921 Z"/></g></svg>