<?xml version="1.0" encoding="utf-8"?> <!-- Generated by Layerhero SVG Exporter: http://www.layerhero.com/photoshop-svg-exporter --><!DOCTYPE svg PUBLIC "-//W3C//DTD SVG 1.1//EN" "http://www.w3.org/Graphics/SVG/1.1/DTD/svg11.dtd"><svg version="1.1" baseProfile="full" xmlns="http://www.w3.org/2000/svg" xmlns:xlink="http://www.w3.org/1999/xlink" xmlns:ev="http://www.w3.org/2001/xml-events" width="159" height="81" viewBox="0 0 159 81"><filter filterUnits="userSpaceOnUse" id="Filter_0" x="13px" y="41px" width="55px" height="16px"  >  <feOffset in="SourceAlpha" dx="0px" dy="1px" />  <feGaussianBlur result="blurOut" stdDeviation="0" />  <feFlood flood-color="rgb( 255, 255, 255 )" result="floodOut" />  <feComposite operator="atop" in="floodOut" in2="blurOut" />  <feComponentTransfer><feFuncA type="linear" slope="1"/></feComponentTransfer>  <feMerge>    <feMergeNode/>    <feMergeNode in="SourceGraphic"/>  </feMerge></filter><filter id="Filter_1">  <feOffset in="SourceAlpha" dx="0px" dy="1px" />  <feGaussianBlur result="blurOut" stdDeviation="3.162" />  <feFlood flood-color="rgb( 0, 0, 1 )" result="floodOut" />  <feComposite operator="out" in="floodOut" in2="blurOut" result="compOut" />  <feComposite operator="in" in="compOut" in2="SourceAlpha" />  <feComponentTransfer><feFuncA type="linear" slope="0.15"/></feComponentTransfer>  <feBlend mode="normal" in2="SourceGraphic" /></filter><g transform="scale(NaN)" ><rect x="0px" y="0px" width="80px" height="60px"  fill="rgb( 255, 255, 255 )"/><path fill-rule="evenodd"  fill="rgb( 67, 150, 255 )" d="M42.000,5.000 C42.000,5.000 75.000,5.000 75.000,5.000 C75.000,5.000 75.000,32.000 75.000,32.000 C75.000,32.000 42.000,32.000 42.000,32.000 C42.000,32.000 42.000,5.000 42.000,5.000 Z"/><path fill-rule="evenodd"  fill="rgb( 243, 104, 60 )" d="M5.000,5.000 C5.000,5.000 38.000,5.000 38.000,5.000 C38.000,5.000 38.000,32.000 38.000,32.000 C38.000,32.000 5.000,32.000 5.000,32.000 C5.000,32.000 5.000,5.000 5.000,5.000 Z"/><path fill-rule="evenodd"  fill="rgb( 255, 255, 255 )" d="M18.006,25.000 C18.006,25.000 18.006,13.000 18.006,13.000 C18.006,13.000 25.994,19.023 25.994,19.023 C25.994,19.023 18.006,25.000 18.006,25.000 Z"/><path fill-rule="evenodd"  fill="rgb( 255, 255, 255 )" d="M64.500,24.722 C64.500,24.722 52.500,24.722 52.500,24.722 C51.395,24.722 50.500,23.865 50.500,22.808 C50.500,22.808 50.500,16.107 50.500,16.107 C50.500,15.049 51.395,14.192 52.500,14.192 C52.500,14.192 54.500,14.192 54.500,14.192 C54.500,13.399 55.172,12.278 56.000,12.278 C56.000,12.278 61.000,12.278 61.000,12.278 C61.828,12.278 62.500,13.399 62.500,14.192 C62.500,14.192 64.500,14.192 64.500,14.192 C65.605,14.192 66.500,15.049 66.500,16.107 C66.500,16.107 66.500,22.808 66.500,22.808 C66.500,23.865 65.605,24.722 64.500,24.722 ZM58.500,15.628 C56.567,15.628 55.000,17.128 55.000,18.979 C55.000,20.829 56.567,22.329 58.500,22.329 C60.433,22.329 62.000,20.829 62.000,18.979 C62.000,17.128 60.433,15.628 58.500,15.628 ZM58.500,21.372 C57.119,21.372 56.000,20.300 56.000,18.979 C56.000,17.657 57.119,16.585 58.500,16.585 C59.881,16.585 61.000,17.657 61.000,18.979 C61.000,20.300 59.881,21.372 58.500,21.372 Z"/><g filter="url(#Filter_0)"><g filter="url(#Filter_1)"><path fill-rule="evenodd"  fill="rgb( 204, 204, 204 )" d="M62.854,51.341 C62.308,52.801 61.398,53.531 60.124,53.531 C59.794,53.531 59.473,53.495 59.159,53.423 C59.159,53.423 59.159,52.242 59.159,52.242 C59.384,52.293 59.640,52.318 59.927,52.318 C60.647,52.318 61.153,51.901 61.445,51.068 C61.445,51.068 61.705,50.408 61.705,50.408 C61.705,50.408 59.175,44.105 59.175,44.105 C59.175,44.105 59.111,44.714 59.111,44.714 C58.899,44.663 58.679,44.638 58.450,44.638 C57.854,44.638 57.370,44.832 57.000,45.222 C56.630,45.611 56.445,46.117 56.445,46.739 C56.445,46.739 56.445,50.408 56.445,50.408 C56.445,50.408 54.953,50.408 54.953,50.408 C54.953,50.408 54.953,43.387 54.953,43.387 C54.953,43.387 56.121,43.387 56.121,43.387 C56.121,43.387 56.318,44.625 56.318,44.625 C56.318,44.625 56.394,44.625 56.394,44.625 C56.626,44.206 56.930,43.874 57.305,43.628 C57.679,43.383 58.082,43.260 58.514,43.260 C58.814,43.260 59.062,43.281 59.257,43.324 C59.257,43.324 59.250,43.387 59.250,43.387 C59.250,43.387 60.511,43.387 60.511,43.387 C60.511,43.387 61.940,47.367 61.940,47.367 C62.156,47.934 62.299,48.467 62.371,48.967 C62.371,48.967 62.422,48.967 62.422,48.967 C62.460,48.734 62.530,48.451 62.632,48.119 C62.733,47.787 63.271,46.210 64.244,43.387 C64.244,43.387 65.856,43.387 65.856,43.387 C65.856,43.387 62.854,51.341 62.854,51.341 ZM51.631,46.091 C51.631,45.550 51.522,45.145 51.304,44.879 C51.086,44.612 50.740,44.479 50.266,44.479 C49.636,44.479 49.175,44.665 48.883,45.037 C48.591,45.410 48.445,46.034 48.445,46.910 C48.445,46.910 48.445,50.408 48.445,50.408 C48.445,50.408 46.953,50.408 46.953,50.408 C46.953,50.408 46.953,43.387 46.953,43.387 C46.953,43.387 48.121,43.387 48.121,43.387 C48.121,43.387 48.330,44.307 48.330,44.307 C48.330,44.307 48.406,44.307 48.406,44.307 C48.618,43.973 48.918,43.715 49.308,43.533 C49.697,43.351 50.129,43.260 50.603,43.260 C52.287,43.260 53.129,44.117 53.129,45.831 C53.129,45.831 53.129,50.408 53.129,50.408 C53.129,50.408 51.631,50.408 51.631,50.408 C51.631,50.408 51.631,46.091 51.631,46.091 ZM41.841,50.535 C41.185,50.535 40.605,50.386 40.102,50.090 C39.598,49.794 39.211,49.369 38.940,48.814 C38.669,48.260 38.534,47.617 38.534,46.885 C38.534,45.746 38.826,44.858 39.410,44.219 C39.994,43.580 40.817,43.260 41.879,43.260 C42.895,43.260 43.699,43.587 44.291,44.241 C44.884,44.895 45.180,45.776 45.180,46.885 C45.180,48.031 44.886,48.926 44.298,49.570 C43.709,50.213 42.891,50.535 41.841,50.535 ZM41.854,44.479 C41.227,44.479 40.774,44.686 40.492,45.101 C40.211,45.516 40.070,46.110 40.070,46.885 C40.070,48.505 40.669,49.316 41.866,49.316 C43.051,49.316 43.644,48.505 43.644,46.885 C43.644,45.281 43.047,44.479 41.854,44.479 ZM35.632,46.275 C36.211,46.500 36.632,46.705 36.895,46.891 C37.157,47.077 37.352,47.292 37.479,47.535 C37.606,47.779 37.669,48.070 37.669,48.408 C37.669,49.094 37.419,49.619 36.920,49.985 C36.421,50.352 35.706,50.535 34.775,50.535 C33.839,50.535 33.088,50.393 32.521,50.109 C32.521,50.109 32.521,48.821 32.521,48.821 C33.346,49.201 34.115,49.392 34.825,49.392 C35.744,49.392 36.203,49.115 36.203,48.560 C36.203,48.383 36.152,48.235 36.051,48.116 C35.949,47.998 35.782,47.875 35.549,47.748 C35.316,47.621 34.993,47.477 34.578,47.316 C33.770,47.003 33.223,46.690 32.937,46.377 C32.651,46.064 32.509,45.657 32.509,45.158 C32.509,44.557 32.751,44.091 33.235,43.758 C33.720,43.426 34.379,43.260 35.213,43.260 C36.038,43.260 36.819,43.427 37.555,43.762 C37.555,43.762 37.073,44.885 37.073,44.885 C36.315,44.572 35.678,44.415 35.162,44.415 C34.375,44.415 33.981,44.640 33.981,45.088 C33.981,45.308 34.084,45.494 34.289,45.647 C34.494,45.799 34.942,46.009 35.632,46.275 ZM30.047,49.430 C30.047,49.430 29.996,49.430 29.996,49.430 C29.658,49.857 29.317,50.148 28.974,50.303 C28.632,50.457 28.191,50.535 27.654,50.535 C26.964,50.535 26.426,50.348 26.039,49.976 C25.651,49.604 25.458,49.077 25.458,48.395 C25.458,47.672 25.726,47.126 26.264,46.758 C26.801,46.389 27.620,46.189 28.720,46.155 C28.720,46.155 29.933,46.117 29.933,46.117 C29.933,46.117 29.933,45.742 29.933,45.742 C29.933,45.294 29.828,44.958 29.619,44.736 C29.409,44.514 29.084,44.403 28.644,44.403 C28.285,44.403 27.940,44.456 27.610,44.561 C27.280,44.667 26.962,44.792 26.657,44.936 C26.657,44.936 26.175,43.869 26.175,43.869 C26.556,43.671 26.973,43.519 27.426,43.416 C27.878,43.312 28.306,43.260 28.708,43.260 C29.601,43.260 30.275,43.455 30.729,43.844 C31.184,44.233 31.412,44.845 31.412,45.679 C31.412,45.679 31.412,50.408 31.412,50.408 C31.412,50.408 30.345,50.408 30.345,50.408 C30.345,50.408 30.047,49.430 30.047,49.430 ZM29.920,47.056 C29.920,47.056 29.019,47.094 29.019,47.094 C28.316,47.119 27.805,47.237 27.486,47.446 C27.166,47.656 27.007,47.976 27.007,48.408 C27.007,48.721 27.100,48.963 27.286,49.135 C27.472,49.306 27.751,49.392 28.124,49.392 C28.665,49.392 29.100,49.241 29.428,48.938 C29.756,48.636 29.920,48.211 29.920,47.665 C29.920,47.665 29.920,47.056 29.920,47.056 ZM22.205,45.818 C22.205,45.357 22.216,44.756 22.240,44.015 C22.263,43.275 22.283,42.826 22.300,42.670 C22.300,42.670 22.249,42.670 22.249,42.670 C22.249,42.670 19.463,50.408 19.463,50.408 C19.463,50.408 18.123,50.408 18.123,50.408 C18.123,50.408 15.432,42.657 15.432,42.657 C15.432,42.657 15.381,42.657 15.381,42.657 C15.453,43.808 15.489,44.887 15.489,45.894 C15.489,45.894 15.489,50.408 15.489,50.408 C15.489,50.408 14.112,50.408 14.112,50.408 C14.112,50.408 14.112,41.127 14.112,41.127 C14.112,41.127 16.251,41.127 16.251,41.127 C16.251,41.127 18.828,48.510 18.828,48.510 C18.828,48.510 18.866,48.510 18.866,48.510 C18.866,48.510 21.519,41.127 21.519,41.127 C21.519,41.127 23.665,41.127 23.665,41.127 C23.665,41.127 23.665,50.408 23.665,50.408 C23.665,50.408 22.205,50.408 22.205,50.408 C22.205,50.408 22.205,45.818 22.205,45.818 Z"/></g></g></g></svg>