<?xml version="1.0" encoding="utf-8"?> <!-- Generated by Layerhero SVG Exporter: http://www.layerhero.com/photoshop-svg-exporter --><!DOCTYPE svg PUBLIC "-//W3C//DTD SVG 1.1//EN" "http://www.w3.org/Graphics/SVG/1.1/DTD/svg11.dtd"><svg version="1.1" baseProfile="full" xmlns="http://www.w3.org/2000/svg" xmlns:xlink="http://www.w3.org/1999/xlink" xmlns:ev="http://www.w3.org/2001/xml-events" width="159" height="124" viewBox="0 0 159 124"><g transform="scale(NaN)" ><rect x="0px" y="0px" width="80px" height="60px"  fill="rgb( 255, 255, 255 )"/><path fill-rule="evenodd"  fill="rgb( 67, 150, 255 )" d="M42.000,5.000 C42.000,5.000 50.000,5.000 50.000,5.000 C50.000,5.000 50.000,12.000 50.000,12.000 C50.000,12.000 42.000,12.000 42.000,12.000 C42.000,12.000 42.000,5.000 42.000,5.000 Z"/><path fill-rule="evenodd"  fill="rgb( 221, 221, 221 )" d="M55.000,7.000 C55.000,7.000 55.000,5.000 55.000,5.000 C55.000,5.000 75.000,5.000 75.000,5.000 C75.000,5.000 75.000,7.000 75.000,7.000 C75.000,7.000 55.000,7.000 55.000,7.000 ZM69.281,11.000 C69.281,11.000 55.000,11.000 55.000,11.000 C55.000,11.000 55.000,9.000 55.000,9.000 C55.000,9.000 69.281,9.000 69.281,9.000 C69.281,9.000 69.281,11.000 69.281,11.000 Z"/><path fill-rule="evenodd"  fill="rgb( 67, 150, 255 )" d="M42.000,15.000 C42.000,15.000 50.000,15.000 50.000,15.000 C50.000,15.000 50.000,22.000 50.000,22.000 C50.000,22.000 42.000,22.000 42.000,22.000 C42.000,22.000 42.000,15.000 42.000,15.000 Z"/><path fill-rule="evenodd"  fill="rgb( 221, 221, 221 )" d="M55.000,17.000 C55.000,17.000 55.000,15.000 55.000,15.000 C55.000,15.000 75.000,15.000 75.000,15.000 C75.000,15.000 75.000,17.000 75.000,17.000 C75.000,17.000 55.000,17.000 55.000,17.000 ZM69.281,21.000 C69.281,21.000 55.000,21.000 55.000,21.000 C55.000,21.000 55.000,19.000 55.000,19.000 C55.000,19.000 69.281,19.000 69.281,19.000 C69.281,19.000 69.281,21.000 69.281,21.000 Z"/><path fill-rule="evenodd"  fill="rgb( 67, 150, 255 )" d="M42.000,26.000 C42.000,26.000 50.000,26.000 50.000,26.000 C50.000,26.000 50.000,33.000 50.000,33.000 C50.000,33.000 42.000,33.000 42.000,33.000 C42.000,33.000 42.000,26.000 42.000,26.000 Z"/><path fill-rule="evenodd"  fill="rgb( 221, 221, 221 )" d="M55.000,28.000 C55.000,28.000 55.000,26.000 55.000,26.000 C55.000,26.000 75.000,26.000 75.000,26.000 C75.000,26.000 75.000,28.000 75.000,28.000 C75.000,28.000 55.000,28.000 55.000,28.000 ZM69.281,32.000 C69.281,32.000 55.000,32.000 55.000,32.000 C55.000,32.000 55.000,30.000 55.000,30.000 C55.000,30.000 69.281,30.000 69.281,30.000 C69.281,30.000 69.281,32.000 69.281,32.000 Z"/><path fill-rule="evenodd"  fill="rgb( 67, 150, 255 )" d="M42.000,37.000 C42.000,37.000 50.000,37.000 50.000,37.000 C50.000,37.000 50.000,44.000 50.000,44.000 C50.000,44.000 42.000,44.000 42.000,44.000 C42.000,44.000 42.000,37.000 42.000,37.000 Z"/><path fill-rule="evenodd"  fill="rgb( 221, 221, 221 )" d="M55.000,39.000 C55.000,39.000 55.000,37.000 55.000,37.000 C55.000,37.000 75.000,37.000 75.000,37.000 C75.000,37.000 75.000,39.000 75.000,39.000 C75.000,39.000 55.000,39.000 55.000,39.000 ZM69.281,43.000 C69.281,43.000 55.000,43.000 55.000,43.000 C55.000,43.000 55.000,41.000 55.000,41.000 C55.000,41.000 69.281,41.000 69.281,41.000 C69.281,41.000 69.281,43.000 69.281,43.000 Z"/><path fill-rule="evenodd"  fill="rgb( 67, 150, 255 )" d="M42.000,48.000 C42.000,48.000 50.000,48.000 50.000,48.000 C50.000,48.000 50.000,55.000 50.000,55.000 C50.000,55.000 42.000,55.000 42.000,55.000 C42.000,55.000 42.000,48.000 42.000,48.000 Z"/><path fill-rule="evenodd"  fill="rgb( 221, 221, 221 )" d="M55.000,50.000 C55.000,50.000 55.000,48.000 55.000,48.000 C55.000,48.000 75.000,48.000 75.000,48.000 C75.000,48.000 75.000,50.000 75.000,50.000 C75.000,50.000 55.000,50.000 55.000,50.000 ZM69.281,54.000 C69.281,54.000 55.000,54.000 55.000,54.000 C55.000,54.000 55.000,52.000 55.000,52.000 C55.000,52.000 69.281,52.000 69.281,52.000 C69.281,52.000 69.281,54.000 69.281,54.000 Z"/><path fill-rule="evenodd"  fill="rgb( 67, 150, 255 )" d="M5.000,5.000 C5.000,5.000 13.000,5.000 13.000,5.000 C13.000,5.000 13.000,12.000 13.000,12.000 C13.000,12.000 5.000,12.000 5.000,12.000 C5.000,12.000 5.000,5.000 5.000,5.000 Z"/><path fill-rule="evenodd"  fill="rgb( 221, 221, 221 )" d="M18.000,7.000 C18.000,7.000 18.000,5.000 18.000,5.000 C18.000,5.000 38.000,5.000 38.000,5.000 C38.000,5.000 38.000,7.000 38.000,7.000 C38.000,7.000 18.000,7.000 18.000,7.000 ZM32.281,11.000 C32.281,11.000 18.000,11.000 18.000,11.000 C18.000,11.000 18.000,9.000 18.000,9.000 C18.000,9.000 32.281,9.000 32.281,9.000 C32.281,9.000 32.281,11.000 32.281,11.000 Z"/><path fill-rule="evenodd"  fill="rgb( 67, 150, 255 )" d="M5.000,15.000 C5.000,15.000 13.000,15.000 13.000,15.000 C13.000,15.000 13.000,22.000 13.000,22.000 C13.000,22.000 5.000,22.000 5.000,22.000 C5.000,22.000 5.000,15.000 5.000,15.000 Z"/><path fill-rule="evenodd"  fill="rgb( 221, 221, 221 )" d="M18.000,17.000 C18.000,17.000 18.000,15.000 18.000,15.000 C18.000,15.000 38.000,15.000 38.000,15.000 C38.000,15.000 38.000,17.000 38.000,17.000 C38.000,17.000 18.000,17.000 18.000,17.000 ZM32.281,21.000 C32.281,21.000 18.000,21.000 18.000,21.000 C18.000,21.000 18.000,19.000 18.000,19.000 C18.000,19.000 32.281,19.000 32.281,19.000 C32.281,19.000 32.281,21.000 32.281,21.000 Z"/><path fill-rule="evenodd"  fill="rgb( 67, 150, 255 )" d="M5.000,26.000 C5.000,26.000 13.000,26.000 13.000,26.000 C13.000,26.000 13.000,33.000 13.000,33.000 C13.000,33.000 5.000,33.000 5.000,33.000 C5.000,33.000 5.000,26.000 5.000,26.000 Z"/><path fill-rule="evenodd"  fill="rgb( 221, 221, 221 )" d="M18.000,28.000 C18.000,28.000 18.000,26.000 18.000,26.000 C18.000,26.000 38.000,26.000 38.000,26.000 C38.000,26.000 38.000,28.000 38.000,28.000 C38.000,28.000 18.000,28.000 18.000,28.000 ZM32.281,32.000 C32.281,32.000 18.000,32.000 18.000,32.000 C18.000,32.000 18.000,30.000 18.000,30.000 C18.000,30.000 32.281,30.000 32.281,30.000 C32.281,30.000 32.281,32.000 32.281,32.000 Z"/><path fill-rule="evenodd"  fill="rgb( 67, 150, 255 )" d="M5.000,37.000 C5.000,37.000 13.000,37.000 13.000,37.000 C13.000,37.000 13.000,44.000 13.000,44.000 C13.000,44.000 5.000,44.000 5.000,44.000 C5.000,44.000 5.000,37.000 5.000,37.000 Z"/><path fill-rule="evenodd"  fill="rgb( 221, 221, 221 )" d="M18.000,39.000 C18.000,39.000 18.000,37.000 18.000,37.000 C18.000,37.000 38.000,37.000 38.000,37.000 C38.000,37.000 38.000,39.000 38.000,39.000 C38.000,39.000 18.000,39.000 18.000,39.000 ZM32.281,43.000 C32.281,43.000 18.000,43.000 18.000,43.000 C18.000,43.000 18.000,41.000 18.000,41.000 C18.000,41.000 32.281,41.000 32.281,41.000 C32.281,41.000 32.281,43.000 32.281,43.000 Z"/><path fill-rule="evenodd"  fill="rgb( 67, 150, 255 )" d="M5.000,48.000 C5.000,48.000 13.000,48.000 13.000,48.000 C13.000,48.000 13.000,55.000 13.000,55.000 C13.000,55.000 5.000,55.000 5.000,55.000 C5.000,55.000 5.000,48.000 5.000,48.000 Z"/><path fill-rule="evenodd"  fill="rgb( 221, 221, 221 )" d="M18.000,50.000 C18.000,50.000 18.000,48.000 18.000,48.000 C18.000,48.000 38.000,48.000 38.000,48.000 C38.000,48.000 38.000,50.000 38.000,50.000 C38.000,50.000 18.000,50.000 18.000,50.000 ZM32.281,54.000 C32.281,54.000 18.000,54.000 18.000,54.000 C18.000,54.000 18.000,52.000 18.000,52.000 C18.000,52.000 32.281,52.000 32.281,52.000 C32.281,52.000 32.281,54.000 32.281,54.000 Z"/></g></svg>