<?xml version="1.0" encoding="utf-8"?> <!-- Generated by Layerhero SVG Exporter: http://www.layerhero.com/photoshop-svg-exporter --><!DOCTYPE svg PUBLIC "-//W3C//DTD SVG 1.1//EN" "http://www.w3.org/Graphics/SVG/1.1/DTD/svg11.dtd"><svg version="1.1" baseProfile="full" xmlns="http://www.w3.org/2000/svg" xmlns:xlink="http://www.w3.org/1999/xlink" xmlns:ev="http://www.w3.org/2001/xml-events" width="159" height="81" viewBox="0 0 159 81"><g transform="scale(NaN)" ><rect x="0px" y="0px" width="80px" height="60px"  fill="rgb( 255, 255, 255 )"/><path fill-rule="evenodd"  fill="rgb( 67, 150, 255 )" d="M42.000,5.000 C42.000,5.000 75.000,5.000 75.000,5.000 C75.000,5.000 75.000,32.000 75.000,32.000 C75.000,32.000 42.000,32.000 42.000,32.000 C42.000,32.000 42.000,5.000 42.000,5.000 Z"/><path fill-rule="evenodd"  fill="rgb( 221, 221, 221 )" d="M42.000,55.000 C42.000,55.000 42.000,53.000 42.000,53.000 C42.000,53.000 75.000,53.000 75.000,53.000 C75.000,53.000 75.000,55.000 75.000,55.000 C75.000,55.000 42.000,55.000 42.000,55.000 ZM42.000,49.000 C42.000,49.000 75.000,49.000 75.000,49.000 C75.000,49.000 75.000,51.000 75.000,51.000 C75.000,51.000 42.000,51.000 42.000,51.000 C42.000,51.000 42.000,49.000 42.000,49.000 Z"/><path fill-rule="evenodd"  fill="rgb( 221, 221, 221 )" d="M42.000,39.000 C42.000,39.000 42.000,37.000 42.000,37.000 C42.000,37.000 75.000,37.000 75.000,37.000 C75.000,37.000 75.000,39.000 75.000,39.000 C75.000,39.000 42.000,39.000 42.000,39.000 ZM65.594,43.000 C65.594,43.000 42.000,43.000 42.000,43.000 C42.000,43.000 42.000,41.000 42.000,41.000 C42.000,41.000 65.594,41.000 65.594,41.000 C65.594,41.000 65.594,43.000 65.594,43.000 Z"/><path fill-rule="evenodd"  fill="rgb( 243, 104, 60 )" d="M5.000,5.000 C5.000,5.000 38.000,5.000 38.000,5.000 C38.000,5.000 38.000,32.000 38.000,32.000 C38.000,32.000 5.000,32.000 5.000,32.000 C5.000,32.000 5.000,5.000 5.000,5.000 Z"/><path fill-rule="evenodd"  fill="rgb( 221, 221, 221 )" d="M5.000,55.000 C5.000,55.000 5.000,53.000 5.000,53.000 C5.000,53.000 38.000,53.000 38.000,53.000 C38.000,53.000 38.000,55.000 38.000,55.000 C38.000,55.000 5.000,55.000 5.000,55.000 ZM5.000,49.000 C5.000,49.000 38.000,49.000 38.000,49.000 C38.000,49.000 38.000,51.000 38.000,51.000 C38.000,51.000 5.000,51.000 5.000,51.000 C5.000,51.000 5.000,49.000 5.000,49.000 Z"/><path fill-rule="evenodd"  fill="rgb( 221, 221, 221 )" d="M5.000,39.000 C5.000,39.000 5.000,37.000 5.000,37.000 C5.000,37.000 38.000,37.000 38.000,37.000 C38.000,37.000 38.000,39.000 38.000,39.000 C38.000,39.000 5.000,39.000 5.000,39.000 ZM28.594,43.000 C28.594,43.000 5.000,43.000 5.000,43.000 C5.000,43.000 5.000,41.000 5.000,41.000 C5.000,41.000 28.594,41.000 28.594,41.000 C28.594,41.000 28.594,43.000 28.594,43.000 Z"/><path fill-rule="evenodd"  fill="rgb( 255, 255, 255 )" d="M18.006,25.000 C18.006,25.000 18.006,13.000 18.006,13.000 C18.006,13.000 25.994,19.023 25.994,19.023 C25.994,19.023 18.006,25.000 18.006,25.000 Z"/><path fill-rule="evenodd"  fill="rgb( 255, 255, 255 )" d="M64.500,24.722 C64.500,24.722 52.500,24.722 52.500,24.722 C51.395,24.722 50.500,23.865 50.500,22.808 C50.500,22.808 50.500,16.107 50.500,16.107 C50.500,15.049 51.395,14.192 52.500,14.192 C52.500,14.192 54.500,14.192 54.500,14.192 C54.500,13.399 55.172,12.278 56.000,12.278 C56.000,12.278 61.000,12.278 61.000,12.278 C61.828,12.278 62.500,13.399 62.500,14.192 C62.500,14.192 64.500,14.192 64.500,14.192 C65.605,14.192 66.500,15.049 66.500,16.107 C66.500,16.107 66.500,22.808 66.500,22.808 C66.500,23.865 65.605,24.722 64.500,24.722 ZM58.500,15.628 C56.567,15.628 55.000,17.128 55.000,18.979 C55.000,20.829 56.567,22.329 58.500,22.329 C60.433,22.329 62.000,20.829 62.000,18.979 C62.000,17.128 60.433,15.628 58.500,15.628 ZM58.500,21.372 C57.119,21.372 56.000,20.300 56.000,18.979 C56.000,17.657 57.119,16.585 58.500,16.585 C59.881,16.585 61.000,17.657 61.000,18.979 C61.000,20.300 59.881,21.372 58.500,21.372 Z"/></g></svg>