<?xml version="1.0" encoding="utf-8"?> <!-- Generated by Layerhero SVG Exporter: http://www.layerhero.com/photoshop-svg-exporter --><!DOCTYPE svg PUBLIC "-//W3C//DTD SVG 1.1//EN" "http://www.w3.org/Graphics/SVG/1.1/DTD/svg11.dtd"><svg version="1.1" baseProfile="full" xmlns="http://www.w3.org/2000/svg" xmlns:xlink="http://www.w3.org/1999/xlink" xmlns:ev="http://www.w3.org/2001/xml-events" width="80" height="60" viewBox="0 0 80 60"><g transform="scale(NaN)" ><rect x="0px" y="0px" width="80px" height="60px"  fill="rgb( 255, 255, 255 )"/><path fill-rule="evenodd"  fill="rgb( 204, 204, 204 )" d="M42.000,7.000 C42.000,7.000 42.000,5.000 42.000,5.000 C42.000,5.000 75.000,5.000 75.000,5.000 C75.000,5.000 75.000,7.000 75.000,7.000 C75.000,7.000 42.000,7.000 42.000,7.000 ZM65.562,11.000 C65.562,11.000 42.000,11.000 42.000,11.000 C42.000,11.000 42.000,9.000 42.000,9.000 C42.000,9.000 65.562,9.000 65.562,9.000 C65.562,9.000 65.562,11.000 65.562,11.000 Z"/><path fill-rule="evenodd"  fill="rgb( 204, 204, 204 )" d="M42.000,17.000 C42.000,17.000 42.000,15.000 42.000,15.000 C42.000,15.000 75.000,15.000 75.000,15.000 C75.000,15.000 75.000,17.000 75.000,17.000 C75.000,17.000 42.000,17.000 42.000,17.000 ZM65.562,21.000 C65.562,21.000 42.000,21.000 42.000,21.000 C42.000,21.000 42.000,19.000 42.000,19.000 C42.000,19.000 65.562,19.000 65.562,19.000 C65.562,19.000 65.562,21.000 65.562,21.000 Z"/><path fill-rule="evenodd"  fill="rgb( 204, 204, 204 )" d="M42.000,28.000 C42.000,28.000 42.000,26.000 42.000,26.000 C42.000,26.000 75.000,26.000 75.000,26.000 C75.000,26.000 75.000,28.000 75.000,28.000 C75.000,28.000 42.000,28.000 42.000,28.000 ZM65.562,32.000 C65.562,32.000 42.000,32.000 42.000,32.000 C42.000,32.000 42.000,30.000 42.000,30.000 C42.000,30.000 65.562,30.000 65.562,30.000 C65.562,30.000 65.562,32.000 65.562,32.000 Z"/><path fill-rule="evenodd"  fill="rgb( 204, 204, 204 )" d="M42.000,39.000 C42.000,39.000 42.000,37.000 42.000,37.000 C42.000,37.000 75.000,37.000 75.000,37.000 C75.000,37.000 75.000,39.000 75.000,39.000 C75.000,39.000 42.000,39.000 42.000,39.000 ZM65.562,43.000 C65.562,43.000 42.000,43.000 42.000,43.000 C42.000,43.000 42.000,41.000 42.000,41.000 C42.000,41.000 65.562,41.000 65.562,41.000 C65.562,41.000 65.562,43.000 65.562,43.000 Z"/><path fill-rule="evenodd"  fill="rgb( 204, 204, 204 )" d="M42.000,50.000 C42.000,50.000 42.000,48.000 42.000,48.000 C42.000,48.000 75.000,48.000 75.000,48.000 C75.000,48.000 75.000,50.000 75.000,50.000 C75.000,50.000 42.000,50.000 42.000,50.000 ZM65.562,54.000 C65.562,54.000 42.000,54.000 42.000,54.000 C42.000,54.000 42.000,52.000 42.000,52.000 C42.000,52.000 65.562,52.000 65.562,52.000 C65.562,52.000 65.562,54.000 65.562,54.000 Z"/><path fill-rule="evenodd"  fill="rgb( 204, 204, 204 )" d="M5.000,7.000 C5.000,7.000 5.000,5.000 5.000,5.000 C5.000,5.000 38.000,5.000 38.000,5.000 C38.000,5.000 38.000,7.000 38.000,7.000 C38.000,7.000 5.000,7.000 5.000,7.000 ZM28.562,11.000 C28.562,11.000 5.000,11.000 5.000,11.000 C5.000,11.000 5.000,9.000 5.000,9.000 C5.000,9.000 28.562,9.000 28.562,9.000 C28.562,9.000 28.562,11.000 28.562,11.000 Z"/><path fill-rule="evenodd"  fill="rgb( 204, 204, 204 )" d="M5.000,17.000 C5.000,17.000 5.000,15.000 5.000,15.000 C5.000,15.000 38.000,15.000 38.000,15.000 C38.000,15.000 38.000,17.000 38.000,17.000 C38.000,17.000 5.000,17.000 5.000,17.000 ZM28.562,21.000 C28.562,21.000 5.000,21.000 5.000,21.000 C5.000,21.000 5.000,19.000 5.000,19.000 C5.000,19.000 28.562,19.000 28.562,19.000 C28.562,19.000 28.562,21.000 28.562,21.000 Z"/><path fill-rule="evenodd"  fill="rgb( 204, 204, 204 )" d="M5.000,28.000 C5.000,28.000 5.000,26.000 5.000,26.000 C5.000,26.000 38.000,26.000 38.000,26.000 C38.000,26.000 38.000,28.000 38.000,28.000 C38.000,28.000 5.000,28.000 5.000,28.000 ZM28.562,32.000 C28.562,32.000 5.000,32.000 5.000,32.000 C5.000,32.000 5.000,30.000 5.000,30.000 C5.000,30.000 28.562,30.000 28.562,30.000 C28.562,30.000 28.562,32.000 28.562,32.000 Z"/><path fill-rule="evenodd"  fill="rgb( 204, 204, 204 )" d="M5.000,39.000 C5.000,39.000 5.000,37.000 5.000,37.000 C5.000,37.000 38.000,37.000 38.000,37.000 C38.000,37.000 38.000,39.000 38.000,39.000 C38.000,39.000 5.000,39.000 5.000,39.000 ZM28.562,43.000 C28.562,43.000 5.000,43.000 5.000,43.000 C5.000,43.000 5.000,41.000 5.000,41.000 C5.000,41.000 28.562,41.000 28.562,41.000 C28.562,41.000 28.562,43.000 28.562,43.000 Z"/><path fill-rule="evenodd"  fill="rgb( 204, 204, 204 )" d="M5.000,50.000 C5.000,50.000 5.000,48.000 5.000,48.000 C5.000,48.000 38.000,48.000 38.000,48.000 C38.000,48.000 38.000,50.000 38.000,50.000 C38.000,50.000 5.000,50.000 5.000,50.000 ZM28.562,54.000 C28.562,54.000 5.000,54.000 5.000,54.000 C5.000,54.000 5.000,52.000 5.000,52.000 C5.000,52.000 28.562,52.000 28.562,52.000 C28.562,52.000 28.562,54.000 28.562,54.000 Z"/></g></svg>