<?xml version="1.0" encoding="utf-8"?> <!-- Generated by Layerhero SVG Exporter: http://www.layerhero.com/photoshop-svg-exporter --><!DOCTYPE svg PUBLIC "-//W3C//DTD SVG 1.1//EN" "http://www.w3.org/Graphics/SVG/1.1/DTD/svg11.dtd"><svg version="1.1" baseProfile="full" xmlns="http://www.w3.org/2000/svg" xmlns:xlink="http://www.w3.org/1999/xlink" xmlns:ev="http://www.w3.org/2001/xml-events" width="122" height="81" viewBox="0 0 122 81"><g transform="scale(NaN)" ><rect x="0px" y="0px" width="80px" height="60px"  fill="rgb( 255, 255, 255 )"/><path fill-rule="evenodd"  fill="rgb( 67, 150, 255 )" d="M5.000,5.000 C5.000,5.000 75.000,5.000 75.000,5.000 C75.000,5.000 75.000,27.000 75.000,27.000 C75.000,27.000 5.000,27.000 5.000,27.000 C5.000,27.000 5.000,5.000 5.000,5.000 Z"/><path fill-rule="evenodd"  fill="rgb( 221, 221, 221 )" d="M5.000,53.000 C5.000,53.000 75.000,53.000 75.000,53.000 C75.000,53.000 75.000,55.000 75.000,55.000 C75.000,55.000 5.000,55.000 5.000,55.000 C5.000,55.000 5.000,53.000 5.000,53.000 Z"/><path fill-rule="evenodd"  fill="rgb( 221, 221, 221 )" d="M5.000,51.000 C5.000,51.000 5.000,49.000 5.000,49.000 C5.000,49.000 75.000,49.000 75.000,49.000 C75.000,49.000 75.000,51.000 75.000,51.000 C75.000,51.000 5.000,51.000 5.000,51.000 ZM5.000,45.000 C5.000,45.000 75.000,45.000 75.000,45.000 C75.000,45.000 75.000,47.000 75.000,47.000 C75.000,47.000 5.000,47.000 5.000,47.000 C5.000,47.000 5.000,45.000 5.000,45.000 Z"/><path fill-rule="evenodd"  fill="rgb( 204, 204, 204 )" d="M5.000,35.000 C5.000,35.000 5.000,33.000 5.000,33.000 C5.000,33.000 75.000,33.000 75.000,33.000 C75.000,33.000 75.000,35.000 75.000,35.000 C75.000,35.000 5.000,35.000 5.000,35.000 ZM55.063,39.000 C55.063,39.000 5.000,39.000 5.000,39.000 C5.000,39.000 5.000,37.000 5.000,37.000 C5.000,37.000 55.063,37.000 55.063,37.000 C55.063,37.000 55.063,39.000 55.063,39.000 Z"/></g></svg>