<?xml version="1.0" encoding="utf-8"?> <!-- Generated by Layerhero SVG Exporter: http://www.layerhero.com/photoshop-svg-exporter --><!DOCTYPE svg PUBLIC "-//W3C//DTD SVG 1.1//EN" "http://www.w3.org/Graphics/SVG/1.1/DTD/svg11.dtd"><svg version="1.1" baseProfile="full" xmlns="http://www.w3.org/2000/svg" xmlns:xlink="http://www.w3.org/1999/xlink" xmlns:ev="http://www.w3.org/2001/xml-events" width="140" height="113" viewBox="0 0 140 113"><g transform="scale(NaN)" ><rect x="0px" y="0px" width="80px" height="60px"  fill="rgb( 255, 255, 255 )"/><path fill-rule="evenodd"  fill="rgb( 67, 150, 255 )" d="M5.000,5.000 C5.000,5.000 38.000,5.000 38.000,5.000 C38.000,5.000 38.000,27.000 38.000,27.000 C38.000,27.000 5.000,27.000 5.000,27.000 C5.000,27.000 5.000,5.000 5.000,5.000 Z"/><path fill-rule="evenodd"  fill="rgb( 221, 221, 221 )" d="M42.000,25.000 C42.000,25.000 75.000,25.000 75.000,25.000 C75.000,25.000 75.000,27.000 75.000,27.000 C75.000,27.000 42.000,27.000 42.000,27.000 C42.000,27.000 42.000,25.000 42.000,25.000 Z"/><path fill-rule="evenodd"  fill="rgb( 221, 221, 221 )" d="M42.000,23.000 C42.000,23.000 42.000,21.000 42.000,21.000 C42.000,21.000 75.000,21.000 75.000,21.000 C75.000,21.000 75.000,23.000 75.000,23.000 C75.000,23.000 42.000,23.000 42.000,23.000 ZM42.000,17.000 C42.000,17.000 75.000,17.000 75.000,17.000 C75.000,17.000 75.000,19.000 75.000,19.000 C75.000,19.000 42.000,19.000 42.000,19.000 C42.000,19.000 42.000,17.000 42.000,17.000 Z"/><path fill-rule="evenodd"  fill="rgb( 204, 204, 204 )" d="M42.000,7.000 C42.000,7.000 42.000,5.000 42.000,5.000 C42.000,5.000 75.000,5.000 75.000,5.000 C75.000,5.000 75.000,7.000 75.000,7.000 C75.000,7.000 42.000,7.000 42.000,7.000 ZM65.594,11.000 C65.594,11.000 42.000,11.000 42.000,11.000 C42.000,11.000 42.000,9.000 42.000,9.000 C42.000,9.000 65.594,9.000 65.594,9.000 C65.594,9.000 65.594,11.000 65.594,11.000 Z"/><path fill-rule="evenodd"  fill="rgb( 67, 150, 255 )" d="M5.000,33.000 C5.000,33.000 38.000,33.000 38.000,33.000 C38.000,33.000 38.000,55.000 38.000,55.000 C38.000,55.000 5.000,55.000 5.000,55.000 C5.000,55.000 5.000,33.000 5.000,33.000 Z"/><path fill-rule="evenodd"  fill="rgb( 221, 221, 221 )" d="M42.000,53.000 C42.000,53.000 75.000,53.000 75.000,53.000 C75.000,53.000 75.000,55.000 75.000,55.000 C75.000,55.000 42.000,55.000 42.000,55.000 C42.000,55.000 42.000,53.000 42.000,53.000 Z"/><path fill-rule="evenodd"  fill="rgb( 221, 221, 221 )" d="M42.000,51.000 C42.000,51.000 42.000,49.000 42.000,49.000 C42.000,49.000 75.000,49.000 75.000,49.000 C75.000,49.000 75.000,51.000 75.000,51.000 C75.000,51.000 42.000,51.000 42.000,51.000 ZM42.000,45.000 C42.000,45.000 75.000,45.000 75.000,45.000 C75.000,45.000 75.000,47.000 75.000,47.000 C75.000,47.000 42.000,47.000 42.000,47.000 C42.000,47.000 42.000,45.000 42.000,45.000 Z"/><path fill-rule="evenodd"  fill="rgb( 204, 204, 204 )" d="M42.000,35.000 C42.000,35.000 42.000,33.000 42.000,33.000 C42.000,33.000 75.000,33.000 75.000,33.000 C75.000,33.000 75.000,35.000 75.000,35.000 C75.000,35.000 42.000,35.000 42.000,35.000 ZM65.594,39.000 C65.594,39.000 42.000,39.000 42.000,39.000 C42.000,39.000 42.000,37.000 42.000,37.000 C42.000,37.000 65.594,37.000 65.594,37.000 C65.594,37.000 65.594,39.000 65.594,39.000 Z"/></g></svg>