<?xml version="1.0" encoding="utf-8"?> <!-- Generated by Layerhero SVG Exporter: http://www.layerhero.com/photoshop-svg-exporter --><!DOCTYPE svg PUBLIC "-//W3C//DTD SVG 1.1//EN" "http://www.w3.org/Graphics/SVG/1.1/DTD/svg11.dtd"><svg version="1.1" baseProfile="full" xmlns="http://www.w3.org/2000/svg" xmlns:xlink="http://www.w3.org/1999/xlink" xmlns:ev="http://www.w3.org/2001/xml-events" width="80" height="60" viewBox="0 0 80 60"><g transform="scale(NaN)" ><rect x="0px" y="0px" width="80px" height="60px"  fill="rgb( 255, 255, 255 )"/><path fill-rule="evenodd"  fill="rgb( 67, 150, 255 )" d="M5.000,5.000 C5.000,5.000 75.000,5.000 75.000,5.000 C75.000,5.000 75.000,31.000 75.000,31.000 C75.000,31.000 5.000,31.000 5.000,31.000 C5.000,31.000 5.000,5.000 5.000,5.000 Z"/><path fill-rule="evenodd"  fill="rgb( 255, 255, 255 )" d="M9.000,18.000 C9.000,18.000 70.000,18.000 70.000,18.000 C70.000,18.000 70.000,31.000 70.000,31.000 C70.000,31.000 9.000,31.000 9.000,31.000 C9.000,31.000 9.000,18.000 9.000,18.000 Z"/><path fill-rule="evenodd"  fill="rgb( 221, 221, 221 )" d="M5.000,53.000 C5.000,53.000 75.000,53.000 75.000,53.000 C75.000,53.000 75.000,55.000 75.000,55.000 C75.000,55.000 5.000,55.000 5.000,55.000 C5.000,55.000 5.000,53.000 5.000,53.000 Z"/><path fill-rule="evenodd"  fill="rgb( 221, 221, 221 )" d="M5.000,51.000 C5.000,51.000 5.000,49.000 5.000,49.000 C5.000,49.000 75.000,49.000 75.000,49.000 C75.000,49.000 75.000,51.000 75.000,51.000 C75.000,51.000 5.000,51.000 5.000,51.000 ZM5.000,45.000 C5.000,45.000 75.000,45.000 75.000,45.000 C75.000,45.000 75.000,47.000 75.000,47.000 C75.000,47.000 5.000,47.000 5.000,47.000 C5.000,47.000 5.000,45.000 5.000,45.000 Z"/><path fill-rule="evenodd"  fill="rgb( 221, 221, 221 )" d="M5.000,43.000 C5.000,43.000 5.000,41.000 5.000,41.000 C5.000,41.000 75.000,41.000 75.000,41.000 C75.000,41.000 75.000,43.000 75.000,43.000 C75.000,43.000 5.000,43.000 5.000,43.000 ZM5.000,37.000 C5.000,37.000 75.000,37.000 75.000,37.000 C75.000,37.000 75.000,39.000 75.000,39.000 C75.000,39.000 5.000,39.000 5.000,39.000 C5.000,39.000 5.000,37.000 5.000,37.000 Z"/><path fill-rule="evenodd"  fill="rgb( 204, 204, 204 )" d="M12.938,25.000 C12.938,25.000 12.938,23.000 12.938,23.000 C12.938,23.000 65.094,23.000 65.094,23.000 C65.094,23.000 65.094,25.000 65.094,25.000 C65.094,25.000 12.938,25.000 12.938,25.000 ZM50.188,29.000 C50.188,29.000 12.938,29.000 12.938,29.000 C12.938,29.000 12.938,27.000 12.938,27.000 C12.938,27.000 50.188,27.000 50.188,27.000 C50.188,27.000 50.188,29.000 50.188,29.000 Z"/></g></svg>