<?xml version="1.0" encoding="utf-8"?> <!-- Generated by Layerhero SVG Exporter: http://www.layerhero.com/photoshop-svg-exporter --><!DOCTYPE svg PUBLIC "-//W3C//DTD SVG 1.1//EN" "http://www.w3.org/Graphics/SVG/1.1/DTD/svg11.dtd"><svg version="1.1" baseProfile="full" xmlns="http://www.w3.org/2000/svg" xmlns:xlink="http://www.w3.org/1999/xlink" xmlns:ev="http://www.w3.org/2001/xml-events" width="80" height="61" viewBox="0 0 80 61"><g transform="scale(NaN)" ><rect x="0px" y="0px" width="80px" height="60px"  fill="rgb( 255, 255, 255 )"/><path fill-rule="evenodd"  fill="rgb( 238, 238, 238 )" d="M55.000,32.000 C55.000,32.000 80.000,32.000 80.000,32.000 C80.000,32.000 80.000,61.000 80.000,61.000 C80.000,61.000 55.000,61.000 55.000,61.000 C55.000,61.000 55.000,32.000 55.000,32.000 Z"/><path fill-rule="evenodd"  fill="rgb( 67, 150, 255 )" d="M-0.000,0.000 C-0.000,0.000 80.000,0.000 80.000,0.000 C80.000,0.000 80.000,27.000 80.000,27.000 C80.000,27.000 -0.000,27.000 -0.000,27.000 C-0.000,27.000 -0.000,0.000 -0.000,0.000 Z"/><path fill-rule="evenodd"  fill="rgb( 221, 221, 221 )" d="M-0.000,56.000 C-0.000,56.000 -0.000,54.000 -0.000,54.000 C-0.000,54.000 49.000,54.000 49.000,54.000 C49.000,54.000 49.000,56.000 49.000,56.000 C49.000,56.000 -0.000,56.000 -0.000,56.000 ZM-0.000,50.000 C-0.000,50.000 49.000,50.000 49.000,50.000 C49.000,50.000 49.000,52.000 49.000,52.000 C49.000,52.000 -0.000,52.000 -0.000,52.000 C-0.000,52.000 -0.000,50.000 -0.000,50.000 ZM-0.000,46.000 C-0.000,46.000 49.000,46.000 49.000,46.000 C49.000,46.000 49.000,48.000 49.000,48.000 C49.000,48.000 -0.000,48.000 -0.000,48.000 C-0.000,48.000 -0.000,46.000 -0.000,46.000 Z"/><path fill-rule="evenodd"  fill="rgb( 221, 221, 221 )" d="M-0.000,32.000 C-0.000,32.000 49.000,32.000 49.000,32.000 C49.000,32.000 49.000,34.000 49.000,34.000 C49.000,34.000 -0.000,34.000 -0.000,34.000 C-0.000,34.000 -0.000,32.000 -0.000,32.000 Z"/><path fill-rule="evenodd"  fill="rgb( 221, 221, 221 )" d="M-0.000,36.000 C-0.000,36.000 25.000,36.000 25.000,36.000 C25.000,36.000 25.000,38.000 25.000,38.000 C25.000,38.000 -0.000,38.000 -0.000,38.000 C-0.000,38.000 -0.000,36.000 -0.000,36.000 Z"/></g></svg>