<?xml version="1.0" encoding="utf-8"?> <!-- Generated by Layerhero SVG Exporter: http://www.layerhero.com/photoshop-svg-exporter --><!DOCTYPE svg PUBLIC "-//W3C//DTD SVG 1.1//EN" "http://www.w3.org/Graphics/SVG/1.1/DTD/svg11.dtd"><svg version="1.1" baseProfile="full" xmlns="http://www.w3.org/2000/svg" xmlns:xlink="http://www.w3.org/1999/xlink" xmlns:ev="http://www.w3.org/2001/xml-events" width="80" height="60" viewBox="0 0 80 60"><filter filterUnits="userSpaceOnUse" id="Filter_0" x="25px" y="25px" width="30px" height="14px"  >  <feOffset in="SourceAlpha" dx="0px" dy="1px" />  <feGaussianBlur result="blurOut" stdDeviation="0" />  <feFlood flood-color="rgb( 255, 255, 255 )" result="floodOut" />  <feComposite operator="atop" in="floodOut" in2="blurOut" />  <feComponentTransfer><feFuncA type="linear" slope="1"/></feComponentTransfer>  <feMerge>    <feMergeNode/>    <feMergeNode in="SourceGraphic"/>  </feMerge></filter><filter id="Filter_1">  <feOffset in="SourceAlpha" dx="0px" dy="1px" />  <feGaussianBlur result="blurOut" stdDeviation="3.162" />  <feFlood flood-color="rgb( 0, 0, 1 )" result="floodOut" />  <feComposite operator="out" in="floodOut" in2="blurOut" result="compOut" />  <feComposite operator="in" in="compOut" in2="SourceAlpha" />  <feComponentTransfer><feFuncA type="linear" slope="0.15"/></feComponentTransfer>  <feBlend mode="normal" in2="SourceGraphic" /></filter><g transform="scale(NaN)" ><rect x="0px" y="0px" width="80px" height="60px"  fill="rgb( 238, 238, 238 )"/><g filter="url(#Filter_0)"><g filter="url(#Filter_1)"><path fill-rule="evenodd"  fill="rgb( 204, 204, 204 )" d="M50.778,35.408 C50.778,35.408 50.778,25.531 50.778,25.531 C50.778,25.531 52.270,25.531 52.270,25.531 C52.270,25.531 52.270,35.408 52.270,35.408 C52.270,35.408 50.778,35.408 50.778,35.408 ZM46.778,25.531 C46.778,25.531 48.270,25.531 48.270,25.531 C48.270,25.531 48.270,35.408 48.270,35.408 C48.270,35.408 46.778,35.408 46.778,35.408 C46.778,35.408 46.778,25.531 46.778,25.531 ZM42.778,25.531 C42.778,25.531 44.270,25.531 44.270,25.531 C44.270,25.531 44.270,35.408 44.270,35.408 C44.270,35.408 42.778,35.408 42.778,35.408 C42.778,35.408 42.778,25.531 42.778,25.531 ZM38.520,34.487 C38.520,34.487 38.443,34.487 38.443,34.487 C38.236,34.813 37.941,35.069 37.558,35.255 C37.175,35.441 36.738,35.535 36.247,35.535 C35.396,35.535 34.762,35.323 34.343,34.900 C33.924,34.477 33.714,33.836 33.714,32.976 C33.714,32.976 33.714,28.387 33.714,28.387 C33.714,28.387 35.219,28.387 35.219,28.387 C35.219,28.387 35.219,32.716 35.219,32.716 C35.219,33.254 35.329,33.657 35.549,33.925 C35.769,34.194 36.114,34.328 36.583,34.328 C37.210,34.328 37.670,34.141 37.964,33.767 C38.258,33.392 38.405,32.765 38.405,31.885 C38.405,31.885 38.405,28.387 38.405,28.387 C38.405,28.387 39.903,28.387 39.903,28.387 C39.903,28.387 39.903,35.408 39.903,35.408 C39.903,35.408 38.729,35.408 38.729,35.408 C38.729,35.408 38.520,34.487 38.520,34.487 ZM28.441,30.310 C28.441,30.310 31.938,30.310 31.938,30.310 C31.938,30.310 31.938,31.599 31.938,31.599 C31.938,31.599 28.441,31.599 28.441,31.599 C28.441,31.599 28.441,35.408 28.441,35.408 C28.441,35.408 26.937,35.408 26.937,35.408 C26.937,35.408 26.937,26.127 26.937,26.127 C26.937,26.127 32.173,26.127 32.173,26.127 C32.173,26.127 32.173,27.410 32.173,27.410 C32.173,27.410 28.441,27.410 28.441,27.410 C28.441,27.410 28.441,30.310 28.441,30.310 Z"/></g></g></g></svg>