<?xml version="1.0" encoding="utf-8"?> <!-- Generated by Layerhero SVG Exporter: http://www.layerhero.com/photoshop-svg-exporter --><!DOCTYPE svg PUBLIC "-//W3C//DTD SVG 1.1//EN" "http://www.w3.org/Graphics/SVG/1.1/DTD/svg11.dtd"><svg version="1.1" baseProfile="full" xmlns="http://www.w3.org/2000/svg" xmlns:xlink="http://www.w3.org/1999/xlink" xmlns:ev="http://www.w3.org/2001/xml-events" width="80" height="60" viewBox="0 0 80 60"><filter filterUnits="userSpaceOnUse" id="Filter_0" x="15px" y="25px" width="51px" height="14px"  >  <feOffset in="SourceAlpha" dx="0px" dy="1px" />  <feGaussianBlur result="blurOut" stdDeviation="0" />  <feFlood flood-color="rgb( 255, 255, 255 )" result="floodOut" />  <feComposite operator="atop" in="floodOut" in2="blurOut" />  <feComponentTransfer><feFuncA type="linear" slope="1"/></feComponentTransfer>  <feMerge>    <feMergeNode/>    <feMergeNode in="SourceGraphic"/>  </feMerge></filter><filter id="Filter_1">  <feOffset in="SourceAlpha" dx="0px" dy="1px" />  <feGaussianBlur result="blurOut" stdDeviation="3.162" />  <feFlood flood-color="rgb( 0, 0, 1 )" result="floodOut" />  <feComposite operator="out" in="floodOut" in2="blurOut" result="compOut" />  <feComposite operator="in" in="compOut" in2="SourceAlpha" />  <feComponentTransfer><feFuncA type="linear" slope="0.15"/></feComponentTransfer>  <feBlend mode="normal" in2="SourceGraphic" /></filter><g transform="scale(NaN)" ><rect x="0px" y="0px" width="80px" height="60px"  fill="rgb( 238, 238, 238 )"/><g filter="url(#Filter_0)"><g filter="url(#Filter_1)"><path fill-rule="evenodd"  fill="rgb( 204, 204, 204 )" d="M62.185,34.071 C62.365,34.243 62.601,34.328 62.893,34.328 C63.257,34.328 63.621,34.271 63.985,34.157 C63.985,34.157 63.985,35.281 63.985,35.281 C63.820,35.353 63.607,35.413 63.347,35.462 C63.087,35.510 62.817,35.535 62.538,35.535 C61.124,35.535 60.417,34.790 60.417,33.300 C60.417,33.300 60.417,29.517 60.417,29.517 C60.417,29.517 59.459,29.517 59.459,29.517 C59.459,29.517 59.459,28.857 59.459,28.857 C59.459,28.857 60.487,28.311 60.487,28.311 C60.487,28.311 60.995,26.826 60.995,26.826 C60.995,26.826 61.916,26.826 61.916,26.826 C61.916,26.826 61.916,28.387 61.916,28.387 C61.916,28.387 63.915,28.387 63.915,28.387 C63.915,28.387 63.915,29.517 63.915,29.517 C63.915,29.517 61.916,29.517 61.916,29.517 C61.916,29.517 61.916,33.275 61.916,33.275 C61.916,33.634 62.005,33.900 62.185,34.071 ZM56.278,25.531 C56.278,25.531 57.770,25.531 57.770,25.531 C57.770,25.531 57.770,35.408 57.770,35.408 C57.770,35.408 56.278,35.408 56.278,35.408 C56.278,35.408 56.278,25.531 56.278,25.531 ZM52.020,34.487 C52.020,34.487 51.943,34.487 51.943,34.487 C51.736,34.813 51.441,35.069 51.058,35.255 C50.675,35.441 50.238,35.535 49.747,35.535 C48.896,35.535 48.262,35.323 47.843,34.900 C47.424,34.477 47.214,33.836 47.214,32.976 C47.214,32.976 47.214,28.387 47.214,28.387 C47.214,28.387 48.719,28.387 48.719,28.387 C48.719,28.387 48.719,32.716 48.719,32.716 C48.719,33.254 48.829,33.657 49.049,33.925 C49.269,34.194 49.614,34.328 50.083,34.328 C50.710,34.328 51.170,34.141 51.464,33.767 C51.758,33.392 51.905,32.765 51.905,31.885 C51.905,31.885 51.905,28.387 51.905,28.387 C51.905,28.387 53.403,28.387 53.403,28.387 C53.403,28.387 53.403,35.408 53.403,35.408 C53.403,35.408 52.229,35.408 52.229,35.408 C52.229,35.408 52.020,34.487 52.020,34.487 ZM43.372,34.430 C43.372,34.430 43.321,34.430 43.321,34.430 C42.983,34.857 42.642,35.148 42.299,35.303 C41.957,35.457 41.516,35.535 40.979,35.535 C40.289,35.535 39.751,35.348 39.364,34.976 C38.976,34.604 38.783,34.077 38.783,33.395 C38.783,32.672 39.051,32.126 39.589,31.758 C40.126,31.389 40.945,31.189 42.045,31.155 C42.045,31.155 43.258,31.117 43.258,31.117 C43.258,31.117 43.258,30.742 43.258,30.742 C43.258,30.294 43.153,29.958 42.944,29.736 C42.734,29.514 42.409,29.403 41.969,29.403 C41.610,29.403 41.265,29.456 40.935,29.561 C40.604,29.667 40.287,29.792 39.982,29.936 C39.982,29.936 39.500,28.869 39.500,28.869 C39.881,28.671 40.298,28.519 40.750,28.416 C41.203,28.312 41.631,28.260 42.033,28.260 C42.926,28.260 43.599,28.455 44.054,28.844 C44.509,29.233 44.737,29.845 44.737,30.679 C44.737,30.679 44.737,35.408 44.737,35.408 C44.737,35.408 43.670,35.408 43.670,35.408 C43.670,35.408 43.372,34.430 43.372,34.430 ZM43.245,32.056 C43.245,32.056 42.344,32.094 42.344,32.094 C41.641,32.119 41.130,32.237 40.811,32.446 C40.491,32.656 40.332,32.976 40.332,33.408 C40.332,33.721 40.425,33.963 40.611,34.135 C40.797,34.306 41.076,34.392 41.449,34.392 C41.990,34.392 42.425,34.241 42.753,33.938 C43.081,33.636 43.245,33.211 43.245,32.665 C43.245,32.665 43.245,32.056 43.245,32.056 ZM37.058,26.673 C36.719,26.673 36.473,26.778 36.319,26.987 C36.164,27.197 36.087,27.511 36.087,27.930 C36.087,27.930 36.087,28.387 36.087,28.387 C36.087,28.387 37.801,28.387 37.801,28.387 C37.801,28.387 37.801,29.517 37.801,29.517 C37.801,29.517 36.087,29.517 36.087,29.517 C36.087,29.517 36.087,35.408 36.087,35.408 C36.087,35.408 34.589,35.408 34.589,35.408 C34.589,35.408 34.589,29.517 34.589,29.517 C34.589,29.517 33.434,29.517 33.434,29.517 C33.434,29.517 33.434,28.819 33.434,28.819 C33.434,28.819 34.589,28.362 34.589,28.362 C34.589,28.362 34.589,27.905 34.589,27.905 C34.589,27.075 34.783,26.461 35.173,26.061 C35.562,25.661 36.157,25.461 36.957,25.461 C37.481,25.461 37.998,25.548 38.505,25.721 C38.505,25.721 38.112,26.851 38.112,26.851 C37.744,26.732 37.392,26.673 37.058,26.673 ZM27.947,33.805 C28.294,34.171 28.783,34.354 29.414,34.354 C29.828,34.354 30.214,34.315 30.572,34.236 C30.930,34.158 31.314,34.028 31.724,33.846 C31.724,33.846 31.724,35.058 31.724,35.058 C31.360,35.232 30.992,35.355 30.620,35.427 C30.247,35.499 29.822,35.535 29.344,35.535 C28.252,35.535 27.398,35.216 26.782,34.579 C26.167,33.942 25.859,33.065 25.859,31.948 C25.859,30.801 26.145,29.900 26.716,29.244 C27.287,28.588 28.072,28.260 29.071,28.260 C29.998,28.260 30.730,28.542 31.267,29.104 C31.804,29.667 32.073,30.442 32.073,31.428 C32.073,31.428 32.073,32.234 32.073,32.234 C32.073,32.234 27.395,32.234 27.395,32.234 C27.416,32.915 27.600,33.439 27.947,33.805 ZM30.607,31.155 C30.598,30.575 30.459,30.136 30.188,29.837 C29.917,29.539 29.545,29.390 29.071,29.390 C28.597,29.390 28.217,29.540 27.931,29.841 C27.646,30.141 27.475,30.579 27.420,31.155 C27.420,31.155 30.607,31.155 30.607,31.155 ZM19.033,35.408 C19.033,35.408 16.437,35.408 16.437,35.408 C16.437,35.408 16.437,26.127 16.437,26.127 C16.437,26.127 19.306,26.127 19.306,26.127 C20.782,26.127 21.931,26.525 22.752,27.321 C23.573,28.116 23.984,29.236 23.984,30.679 C23.984,32.211 23.559,33.382 22.708,34.192 C21.857,35.002 20.632,35.408 19.033,35.408 ZM19.268,27.397 C19.268,27.397 17.954,27.397 17.954,27.397 C17.954,27.397 17.954,34.132 17.954,34.132 C17.954,34.132 19.033,34.132 19.033,34.132 C21.267,34.132 22.384,32.998 22.384,30.729 C22.384,28.508 21.345,27.397 19.268,27.397 Z"/></g></g></g></svg>